<?xml version="1.0" encoding="utf-8"?>
<!-- Generator: Adobe Illustrator 24.0.1, SVG Export Plug-In . SVG Version: 6.00 Build 0)  -->
<svg version="1.1" id="Camada_1" xmlns="http://www.w3.org/2000/svg" xmlns:xlink="http://www.w3.org/1999/xlink" x="0px" y="0px"
	 viewBox="0 0 1080 662" style="enable-background:new 0 0 1080 662;" xml:space="preserve">
<style type="text/css">
	.st0{fill:#F68661;}
	.st1{enable-background:new    ;}
	.st2{fill:#FFFFFF;}
	.st3{fill:#D2FF58;}
	.st4{fill:#FF6668;}
</style>
<g>
	<g>
		<path class="st0" d="M797.4,164.3H243.9c-42,0-76.2-34.2-76.2-76.2s34.2-76.2,76.2-76.2h553.5c42,0,76.2,34.2,76.2,76.2
			S839.5,164.3,797.4,164.3z M243.9,14.3c-40.7,0-73.8,33.1-73.8,73.8s33.1,73.8,73.8,73.8h553.5c40.7,0,73.8-33.1,73.8-73.8
			s-33.1-73.8-73.8-73.8H243.9z"/>
		<g>
			<g class="st1">
				<path class="st2" d="M126.8,293.5c-3.3-1.4-5.9-3.4-7.9-6c-2-2.7-3-5.8-3.1-9.6h14.8c0.2,2.1,0.9,3.7,2.2,4.8
					c1.2,1.1,2.9,1.7,4.9,1.7c2.1,0,3.7-0.5,4.9-1.4c1.2-0.9,1.8-2.3,1.8-3.9c0-1.4-0.5-2.6-1.4-3.5c-0.9-0.9-2.1-1.7-3.5-2.3
					c-1.4-0.6-3.3-1.3-5.9-2c-3.7-1.1-6.7-2.3-9-3.4c-2.3-1.1-4.3-2.8-6-5c-1.7-2.2-2.5-5.1-2.5-8.7c0-5.3,1.9-9.5,5.8-12.5
					c3.8-3,8.9-4.5,15-4.5c6.3,0,11.3,1.5,15.2,4.5c3.8,3,5.9,7.2,6.2,12.5h-15c-0.1-1.8-0.8-3.3-2-4.3c-1.2-1.1-2.8-1.6-4.8-1.6
					c-1.7,0-3,0.4-4.1,1.3c-1,0.9-1.5,2.2-1.5,3.9c0,1.8,0.9,3.3,2.6,4.3c1.7,1,4.4,2.1,8.1,3.3c3.7,1.2,6.7,2.4,9,3.6
					c2.3,1.1,4.3,2.8,6,5c1.7,2.2,2.5,5,2.5,8.4c0,3.2-0.8,6.2-2.5,8.9c-1.7,2.7-4,4.8-7.2,6.3c-3.1,1.6-6.8,2.4-11.1,2.4
					C133.8,295.5,130.1,294.8,126.8,293.5z"/>
				<path class="st2" d="M175.9,292.7c-3.5-1.9-6.3-4.6-8.4-8.1c-2-3.5-3-7.6-3-12.3c0-4.7,1-8.8,3.1-12.3c2.1-3.5,4.9-6.3,8.4-8.2
					c3.6-1.9,7.6-2.8,12-2.8c4.4,0,8.4,0.9,12,2.8c3.6,1.9,6.4,4.6,8.4,8.2c2.1,3.5,3.1,7.6,3.1,12.3c0,4.7-1,8.8-3.1,12.3
					c-2.1,3.5-4.9,6.3-8.5,8.2c-3.6,1.9-7.6,2.8-12.1,2.8C183.5,295.6,179.5,294.6,175.9,292.7z M194.7,280.6
					c1.9-1.9,2.8-4.7,2.8-8.4s-0.9-6.4-2.7-8.4c-1.8-1.9-4-2.9-6.7-2.9c-2.7,0-5,1-6.7,2.9c-1.8,1.9-2.7,4.7-2.7,8.4
					c0,3.6,0.9,6.4,2.6,8.4c1.8,1.9,4,2.9,6.6,2.9C190.5,283.6,192.8,282.6,194.7,280.6z"/>
				<path class="st2" d="M241.7,261.1h-7.5v33.8h-13.9v-33.8h-5v-11.5h5v-1.3c0-5.6,1.6-9.8,4.8-12.7c3.2-2.9,7.9-4.3,14-4.3
					c1,0,1.8,0,2.3,0.1v11.8c-2.7-0.2-4.5,0.2-5.6,1.1c-1.1,0.9-1.6,2.6-1.6,5v0.4h7.5V261.1z"/>
				<path class="st2" d="M273.5,283.2v11.8h-7.1c-5,0-9-1.2-11.8-3.7c-2.8-2.5-4.2-6.5-4.2-12.1v-18h-5.5v-11.5h5.5v-11h13.9v11h9.1
					v11.5h-9.1v18.2c0,1.4,0.3,2.3,1,2.9c0.6,0.6,1.7,0.9,3.2,0.9H273.5z"/>
				<path class="st2" d="M346.2,249.6L334,294.9h-15.3l-7.1-29.4l-7.4,29.4h-15.3l-12.3-45.3h13.9l6.4,32.4l7.6-32.4h14.7l7.7,32.2
					l6.3-32.2H346.2z"/>
				<path class="st2" d="M351.4,259.9c1.8-3.5,4.2-6.2,7.2-8.1c3-1.9,6.4-2.8,10.2-2.8c3.2,0,6,0.6,8.4,1.9c2.4,1.3,4.3,3,5.6,5.1
					v-6.4h13.9v45.3h-13.9v-6.4c-1.4,2.1-3.2,3.8-5.6,5.1c-2.4,1.3-5.2,1.9-8.4,1.9c-3.7,0-7-1-10.1-2.9c-3-1.9-5.4-4.7-7.2-8.2
					c-1.8-3.5-2.6-7.6-2.6-12.3C348.8,267.5,349.6,263.5,351.4,259.9z M379.8,264.1c-1.9-2-4.3-3-7-3s-5.1,1-7,3
					c-1.9,2-2.9,4.7-2.9,8.2c0,3.5,1,6.2,2.9,8.2c1.9,2,4.3,3,7,3s5.1-1,7-3c1.9-2,2.9-4.7,2.9-8.2S381.7,266.1,379.8,264.1z"/>
				<path class="st2" d="M426.6,251.3c2.4-1.4,5.1-2.2,8.1-2.2v14.7h-3.8c-3.5,0-6.1,0.7-7.8,2.2c-1.7,1.5-2.6,4.1-2.6,7.8v21h-13.9
					v-45.3h13.9v7.6C422.2,254.7,424.2,252.7,426.6,251.3z"/>
				<path class="st2" d="M483.9,275.6h-31.4c0.2,2.8,1.1,5,2.7,6.5c1.6,1.5,3.6,2.2,5.9,2.2c3.5,0,5.9-1.5,7.2-4.4h14.8
					c-0.8,3-2.1,5.7-4.1,8c-2,2.4-4.5,4.3-7.4,5.6c-3,1.4-6.3,2-10,2c-4.4,0-8.4-0.9-11.9-2.8c-3.5-1.9-6.2-4.6-8.1-8.1
					c-1.9-3.5-2.9-7.6-2.9-12.3c0-4.7,1-8.8,2.9-12.3c1.9-3.5,4.6-6.2,8.1-8.1c3.5-1.9,7.4-2.8,11.9-2.8c4.4,0,8.3,0.9,11.7,2.8
					c3.4,1.8,6.1,4.5,8,7.9c1.9,3.4,2.9,7.4,2.9,11.9C484.1,272.8,484,274.2,483.9,275.6z M469.9,267.9c0-2.4-0.8-4.3-2.4-5.7
					c-1.6-1.4-3.7-2.1-6.1-2.1c-2.3,0-4.3,0.7-5.9,2c-1.6,1.4-2.6,3.3-3,5.8H469.9z"/>
				<path class="st2" d="M545.7,241.5c4.5,2.4,8,5.7,10.4,10c2.5,4.3,3.7,9.3,3.7,14.9c0,5.6-1.2,10.5-3.7,14.9
					c-2.5,4.3-6,7.7-10.5,10.1c-4.5,2.4-9.8,3.6-15.7,3.6h-21.4v-57H530C536,237.9,541.2,239.1,545.7,241.5z M541.4,278.6
					c2.9-2.9,4.4-6.9,4.4-12.2c0-5.2-1.5-9.3-4.4-12.3c-2.9-2.9-7-4.4-12.3-4.4h-6.6v33.1h6.6C534.3,282.9,538.4,281.5,541.4,278.6z
					"/>
				<path class="st2" d="M610.1,275.6h-31.4c0.2,2.8,1.1,5,2.7,6.5c1.6,1.5,3.6,2.2,5.9,2.2c3.5,0,5.9-1.5,7.2-4.4h14.8
					c-0.8,3-2.1,5.7-4.1,8c-2,2.4-4.5,4.3-7.4,5.6c-3,1.4-6.3,2-10,2c-4.4,0-8.4-0.9-11.9-2.8c-3.5-1.9-6.2-4.6-8.1-8.1
					c-1.9-3.5-2.9-7.6-2.9-12.3c0-4.7,1-8.8,2.9-12.3c1.9-3.5,4.6-6.2,8.1-8.1c3.5-1.9,7.4-2.8,11.9-2.8c4.4,0,8.3,0.9,11.7,2.8
					c3.4,1.8,6.1,4.5,8,7.9c1.9,3.4,2.9,7.4,2.9,11.9C610.4,272.8,610.3,274.2,610.1,275.6z M596.2,267.9c0-2.4-0.8-4.3-2.4-5.7
					c-1.6-1.4-3.7-2.1-6.1-2.1c-2.3,0-4.3,0.7-5.9,2c-1.6,1.4-2.6,3.3-3,5.8H596.2z"/>
				<path class="st2" d="M638.1,281.9l9.8-32.3h14.8l-16.1,45.3h-17.1l-16.1-45.3h14.9L638.1,281.9z"/>
				<path class="st2" d="M711,275.6h-31.4c0.2,2.8,1.1,5,2.7,6.5c1.6,1.5,3.6,2.2,5.9,2.2c3.5,0,5.9-1.5,7.2-4.4h14.8
					c-0.8,3-2.1,5.7-4.1,8c-2,2.4-4.5,4.3-7.4,5.6c-3,1.4-6.3,2-10,2c-4.4,0-8.4-0.9-11.9-2.8c-3.5-1.9-6.2-4.6-8.1-8.1
					c-2-3.5-2.9-7.6-2.9-12.3c0-4.7,1-8.8,2.9-12.3c1.9-3.5,4.6-6.2,8.1-8.1c3.5-1.9,7.4-2.8,11.9-2.8c4.4,0,8.3,0.9,11.7,2.8
					c3.4,1.8,6.1,4.5,8,7.9c1.9,3.4,2.9,7.4,2.9,11.9C711.2,272.8,711.1,274.2,711,275.6z M697,267.9c0-2.4-0.8-4.3-2.4-5.7
					c-1.6-1.4-3.7-2.1-6.1-2.1c-2.3,0-4.3,0.7-5.9,2c-1.6,1.4-2.6,3.3-3,5.8H697z"/>
				<path class="st2" d="M732.4,234.8v60.1h-13.9v-60.1H732.4z"/>
				<path class="st2" d="M751.1,292.7c-3.5-1.9-6.3-4.6-8.4-8.1c-2-3.5-3-7.6-3-12.3c0-4.7,1-8.8,3.1-12.3c2.1-3.5,4.9-6.3,8.4-8.2
					c3.6-1.9,7.6-2.8,12-2.8c4.4,0,8.4,0.9,12,2.8c3.6,1.9,6.4,4.6,8.4,8.2c2.1,3.5,3.1,7.6,3.1,12.3c0,4.7-1,8.8-3.1,12.3
					c-2.1,3.5-4.9,6.3-8.5,8.2c-3.6,1.9-7.6,2.8-12.1,2.8C758.7,295.6,754.7,294.6,751.1,292.7z M769.9,280.6
					c1.9-1.9,2.8-4.7,2.8-8.4s-0.9-6.4-2.7-8.4c-1.8-1.9-4-2.9-6.7-2.9c-2.7,0-5,1-6.7,2.9c-1.8,1.9-2.7,4.7-2.7,8.4
					c0,3.6,0.9,6.4,2.6,8.4c1.8,1.9,4,2.9,6.6,2.9C765.8,283.6,768,282.6,769.9,280.6z"/>
				<path class="st2" d="M813.7,250.9c2.4-1.3,5.2-1.9,8.4-1.9c3.7,0,7.1,0.9,10.2,2.8c3,1.9,5.4,4.6,7.2,8.1
					c1.8,3.5,2.6,7.6,2.6,12.3c0,4.7-0.9,8.8-2.6,12.3c-1.8,3.5-4.2,6.3-7.2,8.2c-3,1.9-6.4,2.9-10.2,2.9c-3.1,0-5.9-0.6-8.3-1.9
					c-2.4-1.3-4.3-3-5.6-5v27.9h-13.9v-66.9h13.9v6.4C809.4,253.9,811.3,252.2,813.7,250.9z M825,264c-1.9-2-4.3-3-7.1-3
					c-2.8,0-5.1,1-7,3c-1.9,2-2.9,4.7-2.9,8.2s1,6.2,2.9,8.2c1.9,2,4.3,3,7,3c2.8,0,5.1-1,7.1-3c2-2,2.9-4.8,2.9-8.2
					C827.9,268.7,826.9,266,825,264z"/>
				<path class="st2" d="M891.8,275.6h-31.4c0.2,2.8,1.1,5,2.7,6.5c1.6,1.5,3.6,2.2,5.9,2.2c3.5,0,5.9-1.5,7.2-4.4H891
					c-0.8,3-2.1,5.7-4.1,8c-2,2.4-4.5,4.3-7.4,5.6c-3,1.4-6.3,2-10,2c-4.4,0-8.4-0.9-11.9-2.8c-3.5-1.9-6.2-4.6-8.1-8.1
					c-1.9-3.5-2.9-7.6-2.9-12.3c0-4.7,1-8.8,2.9-12.3c1.9-3.5,4.6-6.2,8.1-8.1c3.5-1.9,7.4-2.8,11.9-2.8c4.4,0,8.3,0.9,11.7,2.8
					c3.4,1.8,6.1,4.5,8,7.9c1.9,3.4,2.9,7.4,2.9,11.9C892.1,272.8,892,274.2,891.8,275.6z M877.8,267.9c0-2.4-0.8-4.3-2.4-5.7
					c-1.6-1.4-3.7-2.1-6.1-2.1c-2.3,0-4.3,0.7-5.9,2c-1.6,1.4-2.6,3.3-3,5.8H877.8z"/>
				<path class="st2" d="M919.3,251.3c2.4-1.4,5.1-2.2,8.1-2.2v14.7h-3.8c-3.5,0-6.1,0.7-7.8,2.2c-1.7,1.5-2.6,4.1-2.6,7.8v21h-13.9
					v-45.3h13.9v7.6C914.9,254.7,916.9,252.7,919.3,251.3z"/>
			</g>
		</g>
		<g>
			<g class="st1">
				<path class="st2" d="M253.1,88.4c-3.2,3.1-8.1,4.7-14.7,4.7h-10.9v23.6h-7.4V60.1h18.3c6.4,0,11.2,1.5,14.6,4.6
					c3.3,3.1,5,7.1,5,11.9C258,81.3,256.4,85.3,253.1,88.4z M247.5,84.3c1.9-1.8,2.9-4.3,2.9-7.6c0-7-4-10.5-12-10.5h-10.9v20.8
					h10.9C242.5,86.9,245.6,86.1,247.5,84.3z"/>
				<path class="st2" d="M280.1,73.5c2.4-1.4,5.3-2.1,8.8-2.1V79H287c-8.3,0-12.4,4.5-12.4,13.5v24.2h-7.4V72.2h7.4v7.2
					C275.8,76.8,277.7,74.9,280.1,73.5z"/>
				<path class="st2" d="M305.5,114.6c-3.4-1.9-6-4.6-8-8.1c-1.9-3.5-2.9-7.5-2.9-12.1c0-4.5,1-8.6,3-12.1c2-3.5,4.7-6.2,8.1-8
					c3.4-1.9,7.2-2.8,11.4-2.8c4.2,0,8,0.9,11.4,2.8c3.4,1.9,6.1,4.5,8.1,8c2,3.5,3,7.5,3,12.1c0,4.6-1,8.6-3,12.1
					c-2,3.5-4.8,6.2-8.2,8.1c-3.5,1.9-7.3,2.8-11.5,2.8C312.7,117.4,308.9,116.4,305.5,114.6z M324.3,109c2.3-1.2,4.2-3.1,5.6-5.6
					c1.4-2.5,2.2-5.5,2.2-9.1s-0.7-6.6-2.1-9.1c-1.4-2.5-3.2-4.3-5.5-5.6c-2.3-1.2-4.7-1.8-7.4-1.8c-2.7,0-5.2,0.6-7.4,1.8
					c-2.2,1.2-4,3.1-5.4,5.6c-1.4,2.5-2,5.5-2,9.1c0,3.6,0.7,6.7,2,9.2s3.1,4.3,5.3,5.6c2.2,1.2,4.7,1.8,7.3,1.8
					C319.5,110.9,322,110.3,324.3,109z"/>
				<path class="st2" d="M349.4,82.3c1.8-3.4,4.4-6.1,7.6-8c3.2-1.9,6.8-2.8,10.8-2.8c3.5,0,6.7,0.8,9.7,2.4c3,1.6,5.2,3.7,6.8,6.3
					V56.6h7.5v60.1h-7.5v-8.4c-1.5,2.7-3.6,4.8-6.5,6.5c-2.9,1.7-6.2,2.6-10.1,2.6c-4,0-7.5-1-10.8-2.9c-3.2-1.9-5.8-4.7-7.6-8.2
					c-1.8-3.5-2.8-7.5-2.8-12C346.6,89.7,347.6,85.7,349.4,82.3z M382.3,85.6c-1.4-2.5-3.2-4.4-5.5-5.7c-2.3-1.3-4.8-2-7.6-2
					s-5.3,0.7-7.6,1.9c-2.3,1.3-4.1,3.2-5.4,5.7c-1.4,2.5-2,5.4-2,8.8c0,3.4,0.7,6.4,2,8.9c1.4,2.5,3.2,4.4,5.4,5.8
					c2.3,1.3,4.8,2,7.6,2s5.3-0.7,7.6-2c2.3-1.3,4.1-3.3,5.5-5.8c1.4-2.5,2-5.5,2-8.8C384.3,91,383.6,88.1,382.3,85.6z"/>
				<path class="st2" d="M443.8,72.2v44.5h-7.4v-6.6c-1.4,2.3-3.4,4-5.9,5.3c-2.5,1.3-5.3,1.9-8.3,1.9c-3.5,0-6.6-0.7-9.3-2.2
					c-2.8-1.4-4.9-3.6-6.5-6.5c-1.6-2.9-2.4-6.4-2.4-10.5V72.2h7.3v25.1c0,4.4,1.1,7.8,3.3,10.1c2.2,2.4,5.3,3.5,9.1,3.5
					c3.9,0,7.1-1.2,9.3-3.7c2.3-2.4,3.4-6,3.4-10.6V72.2H443.8z"/>
				<path class="st2" d="M456.3,82.3c1.8-3.4,4.4-6.1,7.7-8c3.3-1.9,7-2.8,11.2-2.8c5.5,0,10,1.3,13.5,4c3.5,2.7,5.9,6.3,7,11h-8
					c-0.8-2.7-2.2-4.8-4.4-6.4c-2.2-1.6-4.9-2.4-8.2-2.4c-4.2,0-7.6,1.5-10.2,4.3c-2.6,2.9-3.9,7-3.9,12.3c0,5.4,1.3,9.5,3.9,12.4
					c2.6,2.9,6,4.4,10.2,4.4c3.2,0,6-0.8,8.1-2.3c2.2-1.5,3.7-3.7,4.5-6.5h8c-1.2,4.5-3.6,8.2-7.1,10.9c-3.6,2.7-8,4.1-13.4,4.1
					c-4.2,0-8-0.9-11.2-2.8c-3.3-1.9-5.8-4.6-7.7-8c-1.8-3.5-2.8-7.5-2.8-12.2C453.5,89.7,454.4,85.7,456.3,82.3z"/>
				<path class="st2" d="M514.6,78.3v26.2c0,2.2,0.5,3.7,1.4,4.6c0.9,0.9,2.5,1.3,4.8,1.3h5.4v6.3h-6.7c-4.1,0-7.2-0.9-9.3-2.8
					c-2.1-1.9-3.1-5-3.1-9.3V78.3h-5.8v-6.1h5.8V61h7.4v11.2h11.6v6.1H514.6z"/>
				<path class="st2" d="M590.5,63.5c4.5,2.3,8,5.6,10.4,9.9c2.4,4.3,3.6,9.3,3.6,15.1c0,5.8-1.2,10.8-3.6,15.1
					c-2.4,4.3-5.9,7.5-10.4,9.7s-9.9,3.4-16,3.4h-17.6V60.1h17.6C580.6,60.1,585.9,61.2,590.5,63.5z M591.1,104.8
					c3.8-3.9,5.8-9.3,5.8-16.3c0-7-1.9-12.5-5.8-16.5c-3.9-3.9-9.4-5.9-16.7-5.9h-10.2v44.5h10.2
					C581.7,110.6,587.3,108.6,591.1,104.8z"/>
				<path class="st2" d="M654.6,97.2H619c0.3,4.4,1.8,7.8,4.5,10.3c2.7,2.5,6,3.7,9.9,3.7c3.2,0,5.9-0.7,8-2.2
					c2.1-1.5,3.6-3.5,4.5-6h8c-1.2,4.3-3.6,7.8-7.1,10.4c-3.6,2.7-8,4-13.3,4c-4.2,0-8-0.9-11.3-2.8c-3.3-1.9-5.9-4.6-7.8-8.1
					c-1.9-3.5-2.8-7.5-2.8-12.1c0-4.6,0.9-8.6,2.8-12.1c1.8-3.5,4.4-6.1,7.8-8c3.3-1.9,7.2-2.8,11.5-2.8c4.2,0,8,0.9,11.2,2.8
					c3.2,1.8,5.7,4.4,7.5,7.6c1.8,3.2,2.6,6.9,2.6,10.9C654.8,94.1,654.7,95.6,654.6,97.2z M645.3,83.9c-1.2-2-2.9-3.6-5.1-4.6
					c-2.1-1.1-4.5-1.6-7.1-1.6c-3.7,0-6.9,1.2-9.5,3.6c-2.6,2.4-4.1,5.7-4.5,9.9h28.1C647.2,88.4,646.5,85.9,645.3,83.9z"/>
				<path class="st2" d="M671.1,115.6c-2.7-1.2-4.8-2.8-6.4-4.9c-1.6-2.1-2.4-4.5-2.6-7.2h7.6c0.2,2.2,1.3,4,3.1,5.4
					c1.9,1.4,4.3,2.1,7.3,2.1c2.8,0,5-0.6,6.7-1.9c1.6-1.2,2.4-2.8,2.4-4.7c0-1.9-0.9-3.4-2.6-4.3c-1.7-0.9-4.4-1.9-8-2.8
					c-3.3-0.9-6-1.7-8.1-2.6c-2.1-0.9-3.9-2.2-5.4-4c-1.5-1.8-2.2-4.1-2.2-6.9c0-2.3,0.7-4.4,2-6.3c1.4-1.9,3.3-3.4,5.8-4.5
					c2.5-1.1,5.3-1.7,8.5-1.7c4.9,0,8.9,1.2,11.9,3.7c3,2.5,4.7,5.9,4.9,10.2h-7.4c-0.2-2.3-1.1-4.2-2.8-5.6c-1.7-1.4-4-2.1-6.9-2.1
					c-2.7,0-4.8,0.6-6.3,1.7c-1.6,1.1-2.4,2.6-2.4,4.5c0,1.5,0.5,2.7,1.4,3.6c0.9,0.9,2.1,1.7,3.6,2.3c1.4,0.6,3.4,1.2,6,1.9
					c3.2,0.9,5.8,1.7,7.8,2.6c2,0.8,3.7,2.1,5.2,3.8c1.4,1.7,2.2,3.9,2.2,6.6c0,2.4-0.7,4.6-2,6.6s-3.3,3.5-5.7,4.6
					c-2.5,1.1-5.3,1.7-8.5,1.7C676.9,117.4,673.8,116.8,671.1,115.6z"/>
				<path class="st2" d="M707.2,63.5c-1-1-1.5-2.2-1.5-3.6c0-1.4,0.5-2.6,1.5-3.6c1-1,2.2-1.5,3.6-1.5c1.4,0,2.5,0.5,3.5,1.5
					c0.9,1,1.4,2.2,1.4,3.6c0,1.4-0.5,2.6-1.4,3.6c-0.9,1-2.1,1.5-3.5,1.5C709.3,64.9,708.1,64.5,707.2,63.5z M714.3,72.2v44.5h-7.4
					V72.2H714.3z"/>
				<path class="st2" d="M755.4,74c2.9,1.7,5,3.8,6.5,6.3v-8.1h7.5v45.5c0,4.1-0.9,7.7-2.6,10.8c-1.7,3.2-4.2,5.6-7.4,7.4
					c-3.2,1.8-7,2.7-11.2,2.7c-5.8,0-10.7-1.4-14.6-4.1c-3.9-2.8-6.2-6.5-6.9-11.3h7.3c0.8,2.7,2.5,4.9,5,6.5
					c2.5,1.7,5.6,2.5,9.2,2.5c4.1,0,7.4-1.3,9.9-3.8c2.6-2.5,3.9-6.1,3.9-10.7v-9.3c-1.5,2.6-3.6,4.8-6.5,6.5
					c-2.9,1.7-6.2,2.6-10.1,2.6c-4,0-7.5-1-10.8-2.9c-3.2-1.9-5.8-4.7-7.6-8.2c-1.8-3.5-2.8-7.5-2.8-12c0-4.5,0.9-8.5,2.8-12
					s4.4-6.1,7.6-8c3.2-1.9,6.8-2.8,10.8-2.8C749.1,71.4,752.5,72.3,755.4,74z M759.8,85.6c-1.4-2.5-3.2-4.4-5.5-5.7
					c-2.3-1.3-4.8-2-7.6-2c-2.8,0-5.3,0.7-7.6,1.9c-2.3,1.3-4.1,3.2-5.4,5.7c-1.4,2.5-2,5.4-2,8.8c0,3.4,0.7,6.4,2,8.9
					c1.4,2.5,3.2,4.4,5.4,5.8c2.3,1.3,4.8,2,7.6,2c2.8,0,5.3-0.7,7.6-2c2.3-1.3,4.1-3.3,5.5-5.8c1.4-2.5,2-5.5,2-8.8
					C761.8,91,761.1,88.1,759.8,85.6z"/>
				<path class="st2" d="M816.6,76.3c3.4,3.3,5,8,5,14.2v26.2h-7.3V91.5c0-4.4-1.1-7.8-3.3-10.2c-2.2-2.4-5.3-3.5-9.1-3.5
					c-3.9,0-7,1.2-9.3,3.7c-2.3,2.4-3.5,6-3.5,10.6v24.6h-7.4V72.2h7.4v6.3c1.5-2.3,3.5-4,6-5.3c2.5-1.2,5.3-1.9,8.3-1.9
					C808.9,71.4,813.3,73,816.6,76.3z"/>
			</g>
		</g>
		<polygon class="st3" points="1001.9,206.7 980.1,195.4 974.5,219.3 965.1,196.7 945.4,211.4 952.7,188 928.2,186.7 948.9,173.4 
			931,156.7 955.3,159.8 952.4,135.4 969,153.5 982.4,132.9 983.6,157.4 1007,150.3 992.1,169.8 1014.7,179.4 990.8,184.8 		"/>
		<polygon class="st4" points="158.6,632.4 128.1,616.7 120.4,650.1 107.2,618.4 79.7,639 89.9,606.3 55.7,604.5 84.6,586 
			59.5,562.6 93.5,566.9 89.4,532.9 112.6,558.1 131.3,529.4 133,563.6 165.7,553.6 145,580.9 176.5,594.3 143,601.9 		"/>
	</g>
	<g>
		<g>
			<g class="st1">
				<path class="st2" d="M325.8,562.4v57h-13.9v-34.2l-12.7,34.2H288l-12.8-34.3v34.3h-13.9v-57h16.4l16,39.5l15.8-39.5H325.8z"/>
				<path class="st2" d="M344.4,617.2c-3.5-1.9-6.3-4.6-8.4-8.1c-2-3.5-3-7.6-3-12.3c0-4.7,1-8.8,3.1-12.3s4.9-6.3,8.4-8.2
					s7.6-2.8,12-2.8c4.4,0,8.4,0.9,12,2.8c3.6,1.9,6.4,4.6,8.4,8.2c2.1,3.5,3.1,7.6,3.1,12.3c0,4.7-1,8.8-3.1,12.3
					c-2.1,3.5-4.9,6.3-8.5,8.2c-3.6,1.9-7.6,2.8-12.1,2.8C352,620,348,619.1,344.4,617.2z M363.2,605.1c1.9-1.9,2.8-4.7,2.8-8.4
					s-0.9-6.4-2.7-8.4c-1.8-1.9-4-2.9-6.7-2.9c-2.7,0-5,1-6.7,2.9c-1.8,1.9-2.7,4.7-2.7,8.4c0,3.6,0.9,6.4,2.6,8.4
					c1.8,1.9,4,2.9,6.6,2.9C359.1,608,361.3,607,363.2,605.1z"/>
				<path class="st2" d="M412.8,607.6v11.8h-7.1c-5,0-9-1.2-11.8-3.7c-2.8-2.5-4.2-6.5-4.2-12.1v-18h-5.5v-11.5h5.5v-11h13.9v11h9.1
					v11.5h-9.1v18.2c0,1.4,0.3,2.3,1,2.9c0.6,0.6,1.7,0.9,3.2,0.9H412.8z"/>
				<path class="st2" d="M421.5,567.2c-1.5-1.4-2.3-3.2-2.3-5.3c0-2.2,0.8-4,2.3-5.4c1.5-1.4,3.5-2.2,6-2.2c2.4,0,4.3,0.7,5.9,2.2
					c1.5,1.4,2.3,3.2,2.3,5.4c0,2.1-0.8,3.9-2.3,5.3c-1.5,1.4-3.5,2.2-5.9,2.2C425,569.4,423,568.7,421.5,567.2z M434.4,574.1v45.3
					h-13.9v-45.3H434.4z"/>
				<path class="st2" d="M453.1,617.2c-3.5-1.9-6.3-4.6-8.4-8.1c-2-3.5-3-7.6-3-12.3c0-4.7,1-8.8,3.1-12.3s4.9-6.3,8.4-8.2
					s7.6-2.8,12-2.8c4.4,0,8.4,0.9,12,2.8c3.6,1.9,6.4,4.6,8.4,8.2c2.1,3.5,3.1,7.6,3.1,12.3c0,4.7-1,8.8-3.1,12.3
					c-2.1,3.5-4.9,6.3-8.5,8.2c-3.6,1.9-7.6,2.8-12.1,2.8C460.6,620,456.6,619.1,453.1,617.2z M471.8,605.1c1.9-1.9,2.8-4.7,2.8-8.4
					s-0.9-6.4-2.7-8.4c-1.8-1.9-4-2.9-6.7-2.9c-2.7,0-5,1-6.7,2.9c-1.8,1.9-2.7,4.7-2.7,8.4c0,3.6,0.9,6.4,2.6,8.4
					c1.8,1.9,4,2.9,6.6,2.9C467.7,608,470,607,471.8,605.1z"/>
				<path class="st2" d="M536.5,578.8c3.2,3.4,4.7,8.2,4.7,14.2v26.5h-13.8v-24.6c0-3-0.8-5.4-2.4-7.1c-1.6-1.7-3.7-2.5-6.3-2.5
					c-2.7,0-4.8,0.8-6.3,2.5c-1.6,1.7-2.4,4-2.4,7.1v24.6h-13.9v-45.3H510v6c1.4-2,3.3-3.6,5.7-4.8c2.4-1.2,5.1-1.7,8-1.7
					C529.1,573.6,533.3,575.3,536.5,578.8z"/>
			</g>
			<g class="st1">
				<path class="st0" d="M595.5,619.4l-7.4-7.5c-2.8,2.9-5.7,5-8.9,6.4c-3.1,1.4-6.7,2.1-10.6,2.1c-3.9,0-7.3-0.7-10.4-2.1
					c-3-1.4-5.3-3.4-7-6c-1.7-2.6-2.5-5.6-2.5-9.1c0-4,1.1-7.4,3.4-10.4c2.2-3,5.6-5.4,9.9-7.1c-1.7-2.1-3-4-3.7-5.7
					c-0.8-1.7-1.1-3.6-1.1-5.7c0-2.4,0.6-4.5,1.8-6.5c1.2-1.9,3-3.4,5.2-4.5c2.3-1.1,4.9-1.6,7.9-1.6c2.9,0,5.5,0.6,7.6,1.7
					c2.2,1.1,3.8,2.7,4.9,4.7c1.1,2,1.6,4.3,1.5,6.8h-7.4c0.1-2.2-0.6-4-1.9-5.2s-3-1.9-5-1.9c-2.2,0-3.9,0.6-5.2,1.8
					c-1.3,1.2-2,2.8-2,4.7c0,1.6,0.4,3.2,1.3,4.7c0.9,1.5,2.4,3.4,4.5,5.6l16.9,17l1.5-2.3l5.5-9.3h8l-6.7,11.5
					c-0.9,1.6-2,3.3-3.2,5.1l12.7,12.7H595.5z M576.6,612.3c2.4-1.1,4.6-2.9,6.7-5.3l-16.6-16.7c-6.9,2.7-10.4,6.8-10.4,12.6
					c0,3.2,1.1,5.8,3.5,8c2.3,2.1,5.3,3.2,9,3.2C571.6,614,574.2,613.5,576.6,612.3z"/>
			</g>
			<g class="st1">
				<path class="st2" d="M664.4,562.4l-20.2,57h-17.4l-20.2-57h14.8l14.1,43l14.2-43H664.4z"/>
				<path class="st2" d="M671.2,567.2c-1.5-1.4-2.3-3.2-2.3-5.3c0-2.2,0.8-4,2.3-5.4c1.5-1.4,3.5-2.2,6-2.2c2.4,0,4.3,0.7,5.9,2.2
					c1.5,1.4,2.3,3.2,2.3,5.4c0,2.1-0.8,3.9-2.3,5.3c-1.5,1.4-3.5,2.2-5.9,2.2C674.7,569.4,672.7,568.7,671.2,567.2z M684.1,574.1
					v45.3h-13.9v-45.3H684.1z"/>
				<path class="st2" d="M694,584.4c1.8-3.5,4.2-6.2,7.2-8.1c3-1.9,6.4-2.8,10.2-2.8c3,0,5.7,0.6,8.2,1.9c2.5,1.2,4.4,2.9,5.8,5v-21
					h13.9v60.1h-13.9v-6.5c-1.3,2.2-3.2,3.9-5.6,5.2c-2.4,1.3-5.2,1.9-8.4,1.9c-3.7,0-7.1-1-10.2-2.9c-3-1.9-5.4-4.7-7.2-8.2
					c-1.8-3.5-2.6-7.6-2.6-12.3C691.4,592,692.2,587.9,694,584.4z M722.4,588.5c-1.9-2-4.3-3-7-3c-2.8,0-5.1,1-7,3
					c-1.9,2-2.9,4.7-2.9,8.2c0,3.5,1,6.2,2.9,8.2c1.9,2,4.3,3,7,3c2.8,0,5.1-1,7-3c1.9-2,2.9-4.7,2.9-8.2
					C725.3,593.3,724.3,590.5,722.4,588.5z"/>
				<path class="st2" d="M791.7,600.1h-31.4c0.2,2.8,1.1,5,2.7,6.5c1.6,1.5,3.6,2.2,5.9,2.2c3.5,0,5.9-1.5,7.2-4.4h14.8
					c-0.8,3-2.1,5.7-4.1,8c-2,2.4-4.5,4.3-7.4,5.6c-3,1.4-6.3,2-10,2c-4.4,0-8.4-0.9-11.9-2.8c-3.5-1.9-6.2-4.6-8.1-8.1
					c-2-3.5-2.9-7.6-2.9-12.3c0-4.7,1-8.8,2.9-12.3c1.9-3.5,4.6-6.2,8.1-8.1c3.5-1.9,7.4-2.8,11.9-2.8c4.4,0,8.3,0.9,11.7,2.8
					c3.4,1.8,6.1,4.5,8,7.9c1.9,3.4,2.9,7.4,2.9,11.9C792,597.3,791.9,598.7,791.7,600.1z M777.8,592.4c0-2.4-0.8-4.3-2.4-5.7
					c-1.6-1.4-3.7-2.1-6.1-2.1c-2.3,0-4.3,0.7-5.9,2c-1.6,1.4-2.6,3.3-3,5.8H777.8z"/>
				<path class="st2" d="M807.9,617.2c-3.5-1.9-6.3-4.6-8.4-8.1c-2-3.5-3-7.6-3-12.3c0-4.7,1-8.8,3.1-12.3c2.1-3.5,4.9-6.3,8.4-8.2
					s7.6-2.8,12-2.8c4.4,0,8.4,0.9,12,2.8c3.6,1.9,6.4,4.6,8.4,8.2c2.1,3.5,3.1,7.6,3.1,12.3c0,4.7-1,8.8-3.1,12.3s-4.9,6.3-8.5,8.2
					c-3.6,1.9-7.6,2.8-12.1,2.8C815.5,620,811.5,619.1,807.9,617.2z M826.7,605.1c1.9-1.9,2.8-4.7,2.8-8.4s-0.9-6.4-2.7-8.4
					c-1.8-1.9-4-2.9-6.7-2.9c-2.7,0-5,1-6.7,2.9c-1.8,1.9-2.7,4.7-2.7,8.4c0,3.6,0.9,6.4,2.6,8.4c1.8,1.9,4,2.9,6.6,2.9
					C822.6,608,824.8,607,826.7,605.1z"/>
			</g>
		</g>
		<g>
			<g>
				<g class="st1">
					<path class="st2" d="M177.1,432.8c1.7,1.4,3.1,3,4.1,5c1,2,1.5,4.1,1.5,6.4c0,2.9-0.7,5.5-2.2,7.8c-1.5,2.3-3.6,4.1-6.4,5.4
						c-2.8,1.3-6.1,2-9.9,2h-21.1v-56.6h20.3c3.8,0,7.1,0.6,9.8,1.9c2.7,1.3,4.7,3,6.1,5.2c1.4,2.2,2,4.6,2,7.3
						c0,3.4-0.9,6.1-2.7,8.3c-1.8,2.2-4.2,3.8-7.2,4.7C173.5,430.6,175.4,431.4,177.1,432.8z M150.5,427.2h12.4c3.5,0,6.1-0.8,8-2.4
						c1.9-1.6,2.8-3.9,2.8-6.7c0-2.9-0.9-5.1-2.8-6.7c-1.9-1.6-4.6-2.4-8.2-2.4h-12.3V427.2z M172.2,450.7c2.1-1.7,3.1-4.1,3.1-7.2
						c0-3.1-1.1-5.6-3.2-7.4c-2.2-1.8-5.1-2.7-8.7-2.7h-12.8v20h13.1C167.2,453.3,170.1,452.4,172.2,450.7z"/>
					<path class="st2" d="M205.8,416.2c2.4-1.4,5.3-2.1,8.8-2.1v7.6h-1.9c-8.3,0-12.4,4.5-12.4,13.5v24.2h-7.4v-44.5h7.4v7.2
						C201.6,419.6,203.4,417.6,205.8,416.2z"/>
					<path class="st2" d="M223.2,425c1.8-3.4,4.4-6.1,7.6-8c3.2-1.9,6.8-2.8,10.8-2.8c3.9,0,7.3,0.8,10.2,2.5c2.9,1.7,5,3.8,6.4,6.3
						v-8.1h7.5v44.5h-7.5v-8.3c-1.5,2.6-3.6,4.8-6.5,6.5c-2.9,1.7-6.3,2.6-10.1,2.6c-4,0-7.5-1-10.7-2.9c-3.2-1.9-5.7-4.7-7.6-8.2
						c-1.8-3.5-2.8-7.5-2.8-12C220.4,432.4,221.3,428.4,223.2,425z M256,428.3c-1.4-2.5-3.2-4.4-5.5-5.7c-2.3-1.3-4.8-2-7.6-2
						c-2.8,0-5.3,0.7-7.6,1.9c-2.3,1.3-4.1,3.2-5.4,5.7c-1.4,2.5-2,5.4-2,8.8c0,3.4,0.7,6.4,2,8.9c1.4,2.5,3.2,4.4,5.4,5.8
						c2.3,1.3,4.8,2,7.6,2c2.8,0,5.3-0.7,7.6-2c2.3-1.3,4.1-3.3,5.5-5.8c1.4-2.5,2-5.5,2-8.8C258.1,433.7,257.4,430.8,256,428.3z"/>
					<path class="st2" d="M312.9,419c3.4,3.3,5,8,5,14.2v26.2h-7.3v-25.2c0-4.4-1.1-7.8-3.3-10.2c-2.2-2.4-5.3-3.5-9.1-3.5
						c-3.9,0-7,1.2-9.3,3.7c-2.3,2.4-3.5,6-3.5,10.6v24.6h-7.4v-44.5h7.4v6.3c1.5-2.3,3.5-4,6-5.3c2.5-1.2,5.3-1.9,8.3-1.9
						C305.1,414.1,309.5,415.7,312.9,419z"/>
					<path class="st2" d="M330,425c1.8-3.4,4.4-6.1,7.6-8c3.2-1.9,6.8-2.8,10.8-2.8c3.5,0,6.7,0.8,9.7,2.4c3,1.6,5.2,3.7,6.8,6.3
						v-23.5h7.5v60.1h-7.5V451c-1.5,2.7-3.6,4.8-6.5,6.5c-2.9,1.7-6.2,2.6-10.1,2.6c-4,0-7.5-1-10.8-2.9c-3.2-1.9-5.8-4.7-7.6-8.2
						c-1.8-3.5-2.8-7.5-2.8-12C327.3,432.4,328.2,428.4,330,425z M362.9,428.3c-1.4-2.5-3.2-4.4-5.5-5.7c-2.3-1.3-4.8-2-7.6-2
						s-5.3,0.7-7.6,1.9c-2.3,1.3-4.1,3.2-5.4,5.7c-1.4,2.5-2,5.4-2,8.8c0,3.4,0.7,6.4,2,8.9c1.4,2.5,3.2,4.4,5.4,5.8
						c2.3,1.3,4.8,2,7.6,2s5.3-0.7,7.6-2c2.3-1.3,4.1-3.3,5.5-5.8c1.4-2.5,2-5.5,2-8.8C364.9,433.7,364.3,430.8,362.9,428.3z"/>
					<path class="st2" d="M440.3,406.3c4.5,2.3,8,5.6,10.4,9.9c2.4,4.3,3.6,9.3,3.6,15.1c0,5.8-1.2,10.8-3.6,15.1
						c-2.4,4.3-5.9,7.5-10.4,9.7c-4.5,2.2-9.9,3.4-16,3.4h-17.6v-56.6h17.6C430.4,402.8,435.7,404,440.3,406.3z M440.9,447.5
						c3.8-3.9,5.8-9.3,5.8-16.3c0-7-1.9-12.5-5.8-16.5c-3.9-3.9-9.4-5.9-16.7-5.9H414v44.5h10.2
						C431.5,453.3,437.1,451.4,440.9,447.5z"/>
					<path class="st2" d="M504.4,439.9h-35.6c0.3,4.4,1.8,7.8,4.5,10.3c2.7,2.5,6,3.7,9.9,3.7c3.2,0,5.9-0.7,8-2.2
						c2.1-1.5,3.6-3.5,4.5-6h8c-1.2,4.3-3.6,7.8-7.1,10.4c-3.6,2.7-8,4-13.3,4c-4.2,0-8-0.9-11.3-2.8c-3.3-1.9-5.9-4.6-7.8-8.1
						c-1.9-3.5-2.8-7.5-2.8-12.1c0-4.6,0.9-8.6,2.8-12.1c1.8-3.5,4.4-6.1,7.8-8c3.3-1.9,7.2-2.8,11.5-2.8c4.2,0,8,0.9,11.2,2.8
						c3.2,1.8,5.8,4.4,7.5,7.6c1.8,3.2,2.6,6.9,2.6,10.9C504.6,436.9,504.5,438.3,504.4,439.9z M495.1,426.6c-1.2-2-2.9-3.6-5.1-4.6
						c-2.1-1.1-4.5-1.6-7.1-1.6c-3.7,0-6.9,1.2-9.5,3.6c-2.6,2.4-4.1,5.7-4.5,9.9H497C497,431.1,496.3,428.7,495.1,426.6z"/>
					<path class="st2" d="M520.9,458.4c-2.7-1.2-4.8-2.8-6.4-4.9c-1.6-2.1-2.4-4.5-2.6-7.2h7.6c0.2,2.2,1.3,4,3.1,5.4
						c1.9,1.4,4.3,2.1,7.3,2.1c2.8,0,5-0.6,6.7-1.9c1.6-1.2,2.4-2.8,2.4-4.7c0-1.9-0.9-3.4-2.6-4.3c-1.7-0.9-4.4-1.9-8-2.8
						c-3.3-0.9-6-1.7-8.1-2.6c-2.1-0.9-3.9-2.2-5.4-4c-1.5-1.8-2.2-4.1-2.2-6.9c0-2.3,0.7-4.4,2-6.3c1.4-1.9,3.3-3.4,5.8-4.5
						c2.5-1.1,5.3-1.7,8.5-1.7c4.9,0,8.9,1.2,11.9,3.7c3,2.5,4.7,5.9,4.9,10.2h-7.4c-0.2-2.3-1.1-4.2-2.8-5.6
						c-1.7-1.4-4-2.1-6.9-2.1c-2.7,0-4.8,0.6-6.3,1.7c-1.6,1.1-2.4,2.6-2.4,4.5c0,1.5,0.5,2.7,1.4,3.6c0.9,0.9,2.1,1.7,3.6,2.3
						c1.4,0.6,3.4,1.2,6,1.9c3.2,0.9,5.8,1.7,7.8,2.6c2,0.8,3.7,2.1,5.2,3.8c1.4,1.7,2.2,3.9,2.2,6.6c0,2.4-0.7,4.6-2,6.6
						c-1.4,1.9-3.3,3.5-5.7,4.6c-2.5,1.1-5.3,1.7-8.5,1.7C526.7,460.1,523.6,459.5,520.9,458.4z"/>
					<path class="st2" d="M557,406.2c-1-1-1.5-2.2-1.5-3.6c0-1.4,0.5-2.6,1.5-3.6c1-1,2.2-1.5,3.6-1.5c1.4,0,2.5,0.5,3.5,1.5
						c0.9,1,1.4,2.2,1.4,3.6c0,1.4-0.5,2.6-1.4,3.6c-0.9,1-2.1,1.5-3.5,1.5C559.1,407.7,557.9,407.2,557,406.2z M564.1,414.9v44.5
						h-7.4v-44.5H564.1z"/>
					<path class="st2" d="M605.2,416.7c2.9,1.7,5,3.8,6.5,6.3v-8.1h7.5v45.5c0,4.1-0.9,7.7-2.6,10.8c-1.7,3.2-4.2,5.6-7.4,7.4
						c-3.2,1.8-7,2.7-11.2,2.7c-5.8,0-10.7-1.4-14.6-4.1c-3.9-2.8-6.2-6.5-6.9-11.3h7.3c0.8,2.7,2.5,4.9,5,6.5
						c2.5,1.7,5.6,2.5,9.2,2.5c4.1,0,7.4-1.3,9.9-3.8c2.6-2.5,3.9-6.1,3.9-10.7V451c-1.5,2.6-3.6,4.8-6.5,6.5
						c-2.9,1.7-6.2,2.6-10.1,2.6c-4,0-7.5-1-10.8-2.9c-3.2-1.9-5.8-4.7-7.6-8.2c-1.8-3.5-2.8-7.5-2.8-12c0-4.5,0.9-8.5,2.8-12
						c1.8-3.4,4.4-6.1,7.6-8c3.2-1.9,6.8-2.8,10.8-2.8C598.9,414.2,602.3,415,605.2,416.7z M609.6,428.3c-1.4-2.5-3.2-4.4-5.5-5.7
						c-2.3-1.3-4.8-2-7.6-2c-2.8,0-5.3,0.7-7.6,1.9c-2.3,1.3-4.1,3.2-5.4,5.7c-1.4,2.5-2,5.4-2,8.8c0,3.4,0.7,6.4,2,8.9
						c1.4,2.5,3.2,4.4,5.4,5.8c2.3,1.3,4.8,2,7.6,2c2.8,0,5.3-0.7,7.6-2c2.3-1.3,4.1-3.3,5.5-5.8c1.4-2.5,2-5.5,2-8.8
						C611.6,433.7,610.9,430.8,609.6,428.3z"/>
					<path class="st2" d="M666.4,419c3.4,3.3,5,8,5,14.2v26.2h-7.3v-25.2c0-4.4-1.1-7.8-3.3-10.2c-2.2-2.4-5.3-3.5-9.1-3.5
						c-3.9,0-7,1.2-9.3,3.7s-3.5,6-3.5,10.6v24.6h-7.4v-44.5h7.4v6.3c1.5-2.3,3.5-4,6-5.3c2.5-1.2,5.3-1.9,8.3-1.9
						C658.7,414.1,663.1,415.7,666.4,419z"/>
				</g>
			</g>
			<path class="st0" d="M686,499.9H128.2c-14.2,0-25.8-11.6-25.8-25.8v-84c0-14.2,11.6-25.8,25.8-25.8H686
				c14.2,0,25.8,11.6,25.8,25.8v84C711.8,488.3,700.2,499.9,686,499.9z M128.2,366.6c-12.9,0-23.5,10.5-23.5,23.4v84
				c0,12.9,10.5,23.5,23.5,23.5H686c12.9,0,23.4-10.5,23.4-23.5v-84c0-12.9-10.5-23.4-23.4-23.4H128.2z"/>
			<g>
				<path class="st0" d="M998.6,488c-7.8,0-11.9-2.7-15.5-5.2c-3.5-2.3-6.5-4.4-12.8-4.4c-6.3,0-9.3,2-12.8,4.4
					c-3.6,2.4-7.7,5.2-15.5,5.2c-7.8,0-11.8-2.7-15.4-5.2c-3.5-2.3-6.5-4.4-12.8-4.4c-6.3,0-9.3,2-12.8,4.4
					c-3.6,2.4-7.7,5.2-15.5,5.2c-7.8,0-11.8-2.7-15.4-5.2c-3.5-2.3-6.5-4.4-12.8-4.4c-6.3,0-9.3,2-12.8,4.3
					c-3.6,2.4-7.7,5.2-15.5,5.2c-7.8,0-11.9-2.7-15.5-5.2c-3.5-2.3-6.5-4.4-12.8-4.4c-1.3,0-2.4-1.1-2.4-2.4s1.1-2.4,2.4-2.4
					c7.8,0,11.9,2.7,15.4,5.2c3.5,2.3,6.5,4.4,12.8,4.4c6.3,0,9.3-2,12.8-4.4c3.6-2.4,7.7-5.2,15.4-5.2c7.8,0,11.9,2.7,15.5,5.2
					c3.5,2.3,6.4,4.3,12.8,4.3c6.3,0,9.3-2,12.8-4.4c3.6-2.4,7.7-5.2,15.4-5.2c7.8,0,11.9,2.7,15.5,5.2c3.5,2.3,6.4,4.3,12.8,4.3
					c6.3,0,9.3-2,12.8-4.4c3.6-2.4,7.7-5.2,15.4-5.2c7.8,0,11.9,2.7,15.4,5.2c3.5,2.3,6.5,4.4,12.8,4.4c1.3,0,2.4,1.1,2.4,2.4
					S1000,488,998.6,488z"/>
			</g>
			<g>
				<g class="st1">
					<path class="st2" d="M822.1,397.2v60.1h-7.4v-60.1H822.1z"/>
					<path class="st2" d="M842.7,455.2c-3.4-1.9-6-4.6-8-8.1c-1.9-3.5-2.9-7.5-2.9-12.1c0-4.5,1-8.6,3-12.1c2-3.5,4.7-6.2,8.1-8
						c3.4-1.9,7.2-2.8,11.4-2.8c4.2,0,8,0.9,11.5,2.8c3.4,1.9,6.1,4.5,8.1,8c2,3.5,3,7.5,3,12.1c0,4.6-1,8.6-3,12.1
						c-2,3.5-4.8,6.2-8.2,8.1c-3.5,1.9-7.3,2.8-11.5,2.8C849.9,458.1,846.1,457.1,842.7,455.2z M861.5,449.7
						c2.3-1.2,4.2-3.1,5.6-5.6c1.4-2.5,2.2-5.5,2.2-9.1s-0.7-6.6-2.1-9.1c-1.4-2.5-3.2-4.3-5.5-5.6c-2.3-1.2-4.7-1.8-7.4-1.8
						c-2.7,0-5.2,0.6-7.4,1.8c-2.2,1.2-4,3.1-5.4,5.6c-1.4,2.5-2,5.5-2,9.1c0,3.6,0.7,6.7,2,9.2c1.3,2.5,3.1,4.3,5.3,5.6
						c2.2,1.2,4.7,1.8,7.3,1.8S859.2,450.9,861.5,449.7z"/>
					<path class="st2" d="M915.1,414.6c2.9,1.7,5,3.8,6.5,6.3v-8.1h7.5v45.5c0,4.1-0.9,7.7-2.6,10.8c-1.7,3.2-4.2,5.6-7.4,7.4
						c-3.2,1.8-7,2.7-11.2,2.7c-5.8,0-10.7-1.4-14.6-4.1c-3.9-2.8-6.2-6.5-6.9-11.3h7.3c0.8,2.7,2.5,4.9,5,6.5
						c2.5,1.7,5.6,2.5,9.2,2.5c4.1,0,7.4-1.3,9.9-3.8c2.6-2.5,3.9-6.1,3.9-10.7V449c-1.5,2.6-3.6,4.8-6.5,6.5
						c-2.9,1.7-6.2,2.6-10.1,2.6c-4,0-7.5-1-10.8-2.9c-3.2-1.9-5.8-4.7-7.6-8.2c-1.8-3.5-2.8-7.5-2.8-12c0-4.5,0.9-8.5,2.8-12
						s4.4-6.1,7.6-8c3.2-1.9,6.8-2.8,10.8-2.8C908.8,412.1,912.2,412.9,915.1,414.6z M919.5,426.2c-1.4-2.5-3.2-4.4-5.5-5.7
						c-2.3-1.3-4.8-2-7.6-2c-2.8,0-5.3,0.7-7.6,1.9c-2.3,1.3-4.1,3.2-5.4,5.7c-1.4,2.5-2,5.4-2,8.8c0,3.4,0.7,6.4,2,8.9
						c1.4,2.5,3.2,4.4,5.4,5.8c2.3,1.3,4.8,2,7.6,2c2.8,0,5.3-0.7,7.6-2c2.3-1.3,4.1-3.3,5.5-5.8c1.4-2.5,2-5.5,2-8.8
						C921.5,431.6,920.8,428.7,919.5,426.2z"/>
					<path class="st2" d="M949.6,455.2c-3.4-1.9-6-4.6-8-8.1c-1.9-3.5-2.9-7.5-2.9-12.1c0-4.5,1-8.6,3-12.1c2-3.5,4.7-6.2,8.1-8
						c3.4-1.9,7.2-2.8,11.5-2.8s8,0.9,11.4,2.8c3.4,1.9,6.1,4.5,8.1,8c2,3.5,3,7.5,3,12.1c0,4.6-1,8.6-3,12.1
						c-2,3.5-4.8,6.2-8.2,8.1c-3.5,1.9-7.3,2.8-11.5,2.8C956.7,458.1,953,457.1,949.6,455.2z M968.4,449.7c2.3-1.2,4.2-3.1,5.6-5.6
						s2.2-5.5,2.2-9.1s-0.7-6.6-2.1-9.1c-1.4-2.5-3.2-4.3-5.5-5.6c-2.3-1.2-4.7-1.8-7.4-1.8c-2.7,0-5.2,0.6-7.4,1.8
						c-2.2,1.2-4,3.1-5.4,5.6c-1.4,2.5-2,5.5-2,9.1c0,3.6,0.7,6.7,2,9.2c1.3,2.5,3.1,4.3,5.3,5.6c2.2,1.2,4.7,1.8,7.3,1.8
						C963.6,451.6,966,450.9,968.4,449.7z"/>
				</g>
			</g>
		</g>
	</g>
</g>
</svg>
