<?xml version="1.0" encoding="utf-8"?>
<!-- Generator: Adobe Illustrator 24.0.1, SVG Export Plug-In . SVG Version: 6.00 Build 0)  -->
<svg version="1.1" id="Camada_1" xmlns="http://www.w3.org/2000/svg" xmlns:xlink="http://www.w3.org/1999/xlink" x="0px" y="0px"
	 viewBox="0 0 1634 424" style="enable-background:new 0 0 1634 424;" xml:space="preserve">
<style type="text/css">
	.st0{fill:#F68661;}
	.st1{enable-background:new    ;}
	.st2{fill:#FFFFFF;}
	.st3{fill:#D2FF58;}
</style>
<g>
	<g>
		<path class="st0" d="M632.5,208.1H98.1c-40.6,0-73.6-33-73.6-73.6S57.5,61,98.1,61h534.4C673,61,706,94,706,134.6
			S673,208.1,632.5,208.1z M98.1,63.3c-39.3,0-71.3,32-71.3,71.3s32,71.3,71.3,71.3h534.4c39.3,0,71.3-32,71.3-71.3
			s-32-71.3-71.3-71.3C632.5,63.3,98.1,63.3,98.1,63.3z"/>
		<g>
			<g class="st1">
				<path class="st2" d="M834.8,160.7c-3.2-1.3-5.7-3.2-7.6-5.8c-1.9-2.6-2.9-5.6-3-9.3h14.3c0.2,2,0.9,3.6,2.1,4.7
					c1.2,1.1,2.8,1.6,4.7,1.6c2,0,3.6-0.5,4.7-1.4c1.1-0.9,1.7-2.2,1.7-3.8c0-1.4-0.5-2.5-1.4-3.4s-2-1.6-3.4-2.2
					c-1.3-0.6-3.2-1.2-5.7-2c-3.6-1.1-6.5-2.2-8.7-3.3c-2.2-1.1-4.2-2.7-5.8-4.9c-1.6-2.1-2.4-4.9-2.4-8.4c0-5.1,1.9-9.1,5.6-12
					c3.7-2.9,8.5-4.4,14.5-4.4c6.1,0,10.9,1.5,14.7,4.4c3.7,2.9,5.7,6.9,6,12.1h-14.5c-0.1-1.8-0.8-3.2-2-4.2
					c-1.2-1-2.7-1.5-4.6-1.5c-1.6,0-2.9,0.4-3.9,1.3c-1,0.9-1.5,2.1-1.5,3.7c0,1.8,0.8,3.2,2.5,4.2c1.7,1,4.3,2.1,7.8,3.2
					c3.6,1.2,6.4,2.4,8.7,3.5c2.2,1.1,4.1,2.7,5.8,4.8c1.6,2.1,2.4,4.8,2.4,8.1c0,3.1-0.8,6-2.4,8.5c-1.6,2.6-3.9,4.6-6.9,6.1
					c-3,1.5-6.6,2.3-10.7,2.3C841.6,162.7,838,162,834.8,160.7z"/>
				<path class="st2" d="M882.3,160c-3.4-1.8-6.1-4.4-8.1-7.8c-2-3.4-2.9-7.4-2.9-11.9c0-4.5,1-8.5,3-11.9c2-3.4,4.7-6,8.2-7.9
					c3.5-1.8,7.3-2.7,11.6-2.7s8.2,0.9,11.6,2.7c3.5,1.8,6.2,4.5,8.2,7.9c2,3.4,3,7.4,3,11.9c0,4.5-1,8.5-3,11.9
					c-2,3.4-4.8,6.1-8.2,7.9c-3.5,1.8-7.4,2.7-11.6,2.7C889.6,162.8,885.7,161.9,882.3,160z M900.4,148.4c1.8-1.9,2.7-4.6,2.7-8.1
					c0-3.5-0.9-6.2-2.6-8.1c-1.8-1.9-3.9-2.8-6.5-2.8c-2.6,0-4.8,0.9-6.5,2.8c-1.7,1.9-2.6,4.6-2.6,8.1c0,3.5,0.8,6.2,2.5,8.1
					c1.7,1.9,3.8,2.8,6.4,2.8C896.4,151.2,898.6,150.2,900.4,148.4z"/>
				<path class="st2" d="M945.9,129.5h-7.2v32.6h-13.4v-32.6h-4.9v-11.1h4.9v-1.3c0-5.4,1.5-9.5,4.6-12.3c3.1-2.8,7.6-4.2,13.6-4.2
					c1,0,1.7,0,2.2,0.1v11.4c-2.6-0.2-4.4,0.2-5.4,1.1c-1,0.9-1.6,2.5-1.6,4.8v0.4h7.2V129.5z"/>
				<path class="st2" d="M976.5,150.8v11.4h-6.8c-4.9,0-8.7-1.2-11.4-3.6c-2.7-2.4-4.1-6.3-4.1-11.6v-17.4h-5.3v-11.1h5.3v-10.7
					h13.4v10.7h8.8v11.1h-8.8v17.6c0,1.3,0.3,2.2,0.9,2.8c0.6,0.6,1.7,0.9,3.1,0.9H976.5z"/>
				<path class="st2" d="M1046.8,118.4l-11.8,43.7h-14.8l-6.9-28.4l-7.1,28.4h-14.7l-11.9-43.7h13.4l6.2,31.3l7.4-31.3h14.2
					l7.4,31.1l6.1-31.1H1046.8z"/>
				<path class="st2" d="M1051.7,128.4c1.7-3.4,4-6,6.9-7.8c2.9-1.8,6.2-2.7,9.8-2.7c3.1,0,5.8,0.6,8.1,1.9c2.3,1.3,4.1,2.9,5.4,4.9
					v-6.2h13.4v43.7H1082V156c-1.3,2-3.1,3.7-5.4,4.9c-2.3,1.3-5,1.9-8.1,1.9c-3.6,0-6.8-0.9-9.7-2.8c-2.9-1.9-5.2-4.5-6.9-7.9
					c-1.7-3.4-2.5-7.4-2.5-11.9C1049.2,135.7,1050,131.8,1051.7,128.4z M1079.2,132.4c-1.9-1.9-4.1-2.9-6.8-2.9s-4.9,1-6.8,2.9
					c-1.9,1.9-2.8,4.5-2.8,7.9c0,3.3,0.9,6,2.8,8c1.9,2,4.1,2.9,6.8,2.9s4.9-1,6.8-2.9s2.8-4.6,2.8-7.9
					C1082,136.9,1081,134.3,1079.2,132.4z"/>
				<path class="st2" d="M1124.4,120c2.4-1.4,5-2.1,7.8-2.1v14.2h-3.7c-3.3,0-5.9,0.7-7.5,2.2c-1.7,1.4-2.5,4-2.5,7.6v20.3h-13.4
					v-43.7h13.4v7.3C1120.1,123.3,1122,121.4,1124.4,120z"/>
				<path class="st2" d="M1179.6,143.5h-30.3c0.2,2.7,1.1,4.8,2.6,6.2c1.5,1.4,3.4,2.2,5.7,2.2c3.3,0,5.7-1.4,7-4.2h14.3
					c-0.7,2.9-2.1,5.5-4,7.8c-1.9,2.3-4.3,4.1-7.2,5.4c-2.9,1.3-6.1,2-9.6,2c-4.3,0-8.1-0.9-11.4-2.7c-3.3-1.8-6-4.4-7.8-7.8
					c-1.9-3.4-2.8-7.4-2.8-11.9c0-4.5,0.9-8.5,2.8-11.9c1.9-3.4,4.5-6,7.8-7.8c3.3-1.8,7.2-2.7,11.5-2.7c4.2,0,8,0.9,11.3,2.7
					c3.3,1.8,5.9,4.3,7.7,7.6c1.9,3.3,2.8,7.1,2.8,11.5C1179.9,140.8,1179.8,142.1,1179.6,143.5z M1166.2,136c0-2.3-0.8-4.1-2.4-5.5
					c-1.6-1.4-3.5-2-5.9-2c-2.2,0-4.1,0.7-5.7,2c-1.5,1.3-2.5,3.2-2.9,5.6H1166.2z"/>
				<path class="st2" d="M1239.4,110.6c4.3,2.3,7.7,5.5,10.1,9.7s3.6,9,3.6,14.4c0,5.4-1.2,10.2-3.6,14.3s-5.8,7.4-10.1,9.7
					c-4.4,2.3-9.4,3.4-15.2,3.4h-20.6v-55h20.6C1230,107.1,1235,108.3,1239.4,110.6z M1235.1,146.4c2.8-2.8,4.2-6.7,4.2-11.8
					c0-5.1-1.4-9-4.2-11.8c-2.8-2.8-6.8-4.2-11.8-4.2h-6.3v32h6.3C1228.4,150.5,1232.3,149.2,1235.1,146.4z"/>
				<path class="st2" d="M1301.6,143.5h-30.3c0.2,2.7,1.1,4.8,2.6,6.2c1.5,1.4,3.4,2.2,5.7,2.2c3.3,0,5.7-1.4,7-4.2h14.3
					c-0.7,2.9-2.1,5.5-4,7.8c-1.9,2.3-4.3,4.1-7.2,5.4c-2.9,1.3-6.1,2-9.6,2c-4.3,0-8.1-0.9-11.4-2.7c-3.3-1.8-6-4.4-7.8-7.8
					c-1.9-3.4-2.8-7.4-2.8-11.9c0-4.5,0.9-8.5,2.8-11.9c1.9-3.4,4.5-6,7.8-7.8c3.3-1.8,7.2-2.7,11.5-2.7c4.2,0,8,0.9,11.3,2.7
					c3.3,1.8,5.9,4.3,7.7,7.6c1.9,3.3,2.8,7.1,2.8,11.5C1301.8,140.8,1301.7,142.1,1301.6,143.5z M1288.1,136c0-2.3-0.8-4.1-2.4-5.5
					c-1.6-1.4-3.5-2-5.9-2c-2.2,0-4.1,0.7-5.7,2c-1.5,1.3-2.5,3.2-2.9,5.6H1288.1z"/>
				<path class="st2" d="M1328.5,149.6l9.5-31.2h14.3l-15.5,43.7h-16.5l-15.5-43.7h14.3L1328.5,149.6z"/>
				<path class="st2" d="M1398.9,143.5h-30.3c0.2,2.7,1.1,4.8,2.6,6.2c1.5,1.4,3.4,2.2,5.7,2.2c3.3,0,5.7-1.4,7-4.2h14.3
					c-0.7,2.9-2.1,5.5-4,7.8c-1.9,2.3-4.3,4.1-7.2,5.4c-2.9,1.3-6.1,2-9.6,2c-4.3,0-8.1-0.9-11.4-2.7c-3.3-1.8-6-4.4-7.8-7.8
					c-1.9-3.4-2.8-7.4-2.8-11.9c0-4.5,0.9-8.5,2.8-11.9c1.9-3.4,4.5-6,7.8-7.8c3.3-1.8,7.2-2.7,11.5-2.7c4.2,0,8,0.9,11.3,2.7
					c3.3,1.8,5.9,4.3,7.7,7.6c1.9,3.3,2.8,7.1,2.8,11.5C1399.2,140.8,1399.1,142.1,1398.9,143.5z M1385.4,136c0-2.3-0.8-4.1-2.4-5.5
					c-1.6-1.4-3.5-2-5.9-2c-2.2,0-4.1,0.7-5.7,2c-1.5,1.3-2.5,3.2-2.9,5.6H1385.4z"/>
				<path class="st2" d="M1419.6,104.1v58h-13.4v-58H1419.6z"/>
				<path class="st2" d="M1437.7,160c-3.4-1.8-6.1-4.4-8.1-7.8c-2-3.4-2.9-7.4-2.9-11.9c0-4.5,1-8.5,3-11.9c2-3.4,4.7-6,8.2-7.9
					c3.5-1.8,7.3-2.7,11.6-2.7c4.3,0,8.2,0.9,11.6,2.7c3.4,1.8,6.2,4.5,8.2,7.9c2,3.4,3,7.4,3,11.9c0,4.5-1,8.5-3,11.9
					c-2,3.4-4.8,6.1-8.2,7.9c-3.5,1.8-7.4,2.7-11.6,2.7C1445,162.8,1441.1,161.9,1437.7,160z M1455.8,148.4c1.8-1.9,2.7-4.6,2.7-8.1
					c0-3.5-0.9-6.2-2.6-8.1c-1.8-1.9-3.9-2.8-6.5-2.8c-2.6,0-4.8,0.9-6.5,2.8c-1.7,1.9-2.6,4.6-2.6,8.1c0,3.5,0.8,6.2,2.5,8.1
					c1.7,1.9,3.8,2.8,6.4,2.8C1451.8,151.2,1454,150.2,1455.8,148.4z"/>
				<path class="st2" d="M1498.1,119.7c2.3-1.3,5-1.9,8.1-1.9c3.6,0,6.9,0.9,9.8,2.7c2.9,1.8,5.2,4.4,6.9,7.8
					c1.7,3.4,2.5,7.3,2.5,11.8c0,4.5-0.9,8.5-2.5,11.9c-1.7,3.4-4,6.1-6.9,7.9c-2.9,1.9-6.2,2.8-9.8,2.8c-3,0-5.7-0.6-8-1.9
					c-2.3-1.3-4.1-2.9-5.4-4.9v27h-13.4v-64.6h13.4v6.2C1494,122.6,1495.8,120.9,1498.1,119.7z M1509,132.3
					c-1.9-1.9-4.1-2.9-6.9-2.9c-2.7,0-4.9,1-6.8,2.9c-1.9,1.9-2.8,4.6-2.8,7.9c0,3.3,0.9,6,2.8,7.9c1.9,1.9,4.1,2.9,6.8,2.9
					c2.7,0,4.9-1,6.8-2.9c1.9-2,2.8-4.6,2.8-8C1511.8,136.9,1510.9,134.2,1509,132.3z"/>
				<path class="st2" d="M1573.5,143.5h-30.3c0.2,2.7,1.1,4.8,2.6,6.2c1.5,1.4,3.4,2.2,5.7,2.2c3.3,0,5.7-1.4,7-4.2h14.3
					c-0.7,2.9-2.1,5.5-4,7.8c-1.9,2.3-4.3,4.1-7.2,5.4c-2.9,1.3-6.1,2-9.6,2c-4.3,0-8.1-0.9-11.4-2.7c-3.3-1.8-6-4.4-7.8-7.8
					c-1.9-3.4-2.8-7.4-2.8-11.9c0-4.5,0.9-8.5,2.8-11.9c1.9-3.4,4.5-6,7.8-7.8c3.3-1.8,7.2-2.7,11.5-2.7c4.2,0,8,0.9,11.3,2.7
					c3.3,1.8,5.9,4.3,7.7,7.6c1.9,3.3,2.8,7.1,2.8,11.5C1573.8,140.8,1573.7,142.1,1573.5,143.5z M1560,136c0-2.3-0.8-4.1-2.4-5.5
					c-1.6-1.4-3.5-2-5.9-2c-2.2,0-4.1,0.7-5.7,2c-1.5,1.3-2.5,3.2-2.9,5.6H1560z"/>
				<path class="st2" d="M1600.1,120c2.4-1.4,5-2.1,7.8-2.1v14.2h-3.7c-3.3,0-5.9,0.7-7.5,2.2c-1.7,1.4-2.5,4-2.5,7.6v20.3h-13.4
					v-43.7h13.4v7.3C1595.8,123.3,1597.7,121.4,1600.1,120z"/>
			</g>
		</g>
		<g>
			<g class="st1">
				<path class="st2" d="M106.9,134.8c-3.1,3-7.9,4.5-14.2,4.5H82.2v22.8h-7.1v-54.6h17.6c6.2,0,10.9,1.5,14.1,4.5
					c3.2,3,4.8,6.8,4.8,11.5C111.6,128,110,131.8,106.9,134.8z M101.5,130.9c1.9-1.7,2.8-4.2,2.8-7.4c0-6.7-3.9-10.1-11.6-10.1H82.2
					v20.1h10.5C96.7,133.5,99.6,132.6,101.5,130.9z"/>
				<path class="st2" d="M133,120.4c2.3-1.4,5.2-2,8.5-2v7.4h-1.9c-8,0-12,4.3-12,13v23.4h-7.1v-43h7.1v7
					C128.8,123.7,130.6,121.8,133,120.4z"/>
				<path class="st2" d="M157.5,160.1c-3.3-1.8-5.8-4.4-7.7-7.8c-1.9-3.4-2.8-7.3-2.8-11.7c0-4.4,1-8.3,2.9-11.6
					c1.9-3.4,4.5-6,7.8-7.8c3.3-1.8,7-2.7,11.1-2.7c4.1,0,7.8,0.9,11.1,2.7c3.3,1.8,5.9,4.4,7.8,7.7c1.9,3.3,2.9,7.2,2.9,11.7
					c0,4.4-1,8.3-2.9,11.7c-2,3.4-4.6,6-8,7.8c-3.3,1.8-7.1,2.7-11.1,2.7C164.4,162.9,160.8,161.9,157.5,160.1z M175.7,154.8
					c2.2-1.2,4.1-3,5.4-5.4c1.4-2.4,2.1-5.3,2.1-8.8c0-3.4-0.7-6.4-2-8.8c-1.4-2.4-3.1-4.2-5.3-5.4c-2.2-1.2-4.6-1.8-7.1-1.8
					c-2.6,0-5,0.6-7.2,1.8c-2.2,1.2-3.9,3-5.2,5.4c-1.3,2.4-2,5.3-2,8.8c0,3.5,0.6,6.5,1.9,8.9c1.3,2.4,3,4.2,5.1,5.4
					c2.1,1.2,4.5,1.8,7.1,1.8C171,156.6,173.4,156,175.7,154.8z"/>
				<path class="st2" d="M199.9,128.9c1.8-3.3,4.2-5.9,7.3-7.7c3.1-1.8,6.6-2.7,10.5-2.7c3.3,0,6.5,0.8,9.3,2.3
					c2.9,1.5,5.1,3.6,6.6,6.1v-22.7h7.2v58h-7.2v-8.1c-1.4,2.6-3.5,4.7-6.3,6.3c-2.8,1.6-6,2.5-9.7,2.5c-3.8,0-7.3-0.9-10.4-2.8
					c-3.1-1.9-5.6-4.5-7.3-7.9c-1.8-3.4-2.7-7.3-2.7-11.6C197.2,136.1,198.1,132.3,199.9,128.9z M231.6,132.1
					c-1.3-2.4-3.1-4.2-5.3-5.5c-2.2-1.3-4.7-1.9-7.3-1.9s-5.1,0.6-7.3,1.9c-2.2,1.3-3.9,3.1-5.3,5.5c-1.3,2.4-2,5.2-2,8.5
					c0,3.3,0.7,6.2,2,8.6c1.3,2.4,3.1,4.3,5.3,5.6c2.2,1.3,4.6,1.9,7.3,1.9s5.1-0.6,7.3-1.9c2.2-1.3,4-3.1,5.3-5.6
					c1.3-2.4,2-5.3,2-8.5C233.6,137.4,232.9,134.5,231.6,132.1z"/>
				<path class="st2" d="M291,119.2v43h-7.1v-6.4c-1.4,2.2-3.3,3.9-5.7,5.1c-2.4,1.2-5.1,1.8-8,1.8c-3.3,0-6.4-0.7-9-2.1
					c-2.7-1.4-4.8-3.5-6.3-6.2c-1.5-2.8-2.3-6.1-2.3-10.1v-25.2h7.1v24.2c0,4.2,1.1,7.5,3.2,9.8c2.1,2.3,5.1,3.4,8.8,3.4
					c3.8,0,6.8-1.2,9-3.5c2.2-2.4,3.3-5.8,3.3-10.3v-23.6H291z"/>
				<path class="st2" d="M303.1,128.9c1.8-3.3,4.2-5.9,7.4-7.7c3.2-1.8,6.8-2.7,10.9-2.7c5.3,0,9.6,1.3,13.1,3.8
					c3.4,2.6,5.7,6.1,6.8,10.7h-7.7c-0.7-2.6-2.2-4.7-4.3-6.2c-2.1-1.5-4.7-2.3-7.9-2.3c-4.1,0-7.4,1.4-9.9,4.2s-3.8,6.8-3.8,11.9
					c0,5.2,1.3,9.2,3.8,12c2.5,2.8,5.8,4.2,9.9,4.2c3.1,0,5.7-0.7,7.8-2.2c2.1-1.5,3.5-3.6,4.3-6.3h7.7c-1.2,4.4-3.4,7.9-6.9,10.5
					c-3.4,2.6-7.8,4-12.9,4c-4.1,0-7.7-0.9-10.9-2.7c-3.2-1.8-5.6-4.4-7.4-7.8c-1.8-3.3-2.7-7.3-2.7-11.8
					C300.4,136.1,301.3,132.3,303.1,128.9z"/>
				<path class="st2" d="M359.3,125.1v25.3c0,2.1,0.4,3.6,1.3,4.4c0.9,0.9,2.4,1.3,4.6,1.3h5.3v6h-6.4c-4,0-7-0.9-8.9-2.7
					c-2-1.8-3-4.8-3-9v-25.3h-5.6v-5.9h5.6v-10.8h7.1v10.8h11.2v5.9H359.3z"/>
				<path class="st2" d="M432.6,110.8c4.4,2.2,7.7,5.4,10,9.5c2.3,4.1,3.5,9,3.5,14.6c0,5.6-1.2,10.4-3.5,14.5
					c-2.3,4.1-5.7,7.2-10,9.4c-4.4,2.2-9.5,3.3-15.5,3.3h-17v-54.6h17C423.1,107.5,428.2,108.6,432.6,110.8z M433.3,150.7
					c3.7-3.7,5.6-9,5.6-15.7c0-6.8-1.9-12.1-5.6-15.9c-3.7-3.8-9.1-5.7-16.1-5.7h-9.9v43h9.9C424.2,156.3,429.6,154.4,433.3,150.7z"
					/>
				<path class="st2" d="M494.5,143.3h-34.3c0.3,4.2,1.7,7.5,4.4,9.9c2.6,2.4,5.8,3.6,9.6,3.6c3.1,0,5.7-0.7,7.7-2.2
					c2.1-1.4,3.5-3.4,4.4-5.8h7.7c-1.1,4.1-3.4,7.5-6.9,10.1c-3.4,2.6-7.7,3.9-12.9,3.9c-4.1,0-7.7-0.9-10.9-2.7
					c-3.2-1.8-5.7-4.4-7.6-7.8c-1.8-3.4-2.7-7.3-2.7-11.7c0-4.4,0.9-8.3,2.7-11.7c1.8-3.3,4.3-5.9,7.5-7.7c3.2-1.8,6.9-2.7,11.1-2.7
					c4.1,0,7.7,0.9,10.8,2.7c3.1,1.8,5.6,4.2,7.3,7.3c1.7,3.1,2.5,6.6,2.5,10.5C494.7,140.4,494.7,141.8,494.5,143.3z M485.6,130.5
					c-1.2-2-2.8-3.4-4.9-4.5c-2.1-1-4.4-1.5-6.9-1.5c-3.6,0-6.7,1.1-9.2,3.4c-2.5,2.3-4,5.5-4.4,9.6h27.1
					C487.4,134.8,486.8,132.5,485.6,130.5z"/>
				<path class="st2" d="M510.5,161.2c-2.6-1.1-4.7-2.7-6.2-4.7c-1.5-2-2.4-4.3-2.5-6.9h7.4c0.2,2.1,1.2,3.9,3,5.3
					c1.8,1.4,4.2,2,7.1,2c2.7,0,4.9-0.6,6.4-1.8c1.6-1.2,2.4-2.7,2.4-4.5c0-1.9-0.8-3.3-2.5-4.2c-1.7-0.9-4.3-1.8-7.8-2.7
					c-3.2-0.8-5.8-1.7-7.8-2.5c-2-0.9-3.7-2.1-5.2-3.8c-1.4-1.7-2.2-3.9-2.2-6.7c0-2.2,0.7-4.2,2-6c1.3-1.8,3.2-3.3,5.6-4.4
					c2.4-1.1,5.1-1.6,8.2-1.6c4.8,0,8.6,1.2,11.5,3.6c2.9,2.4,4.5,5.7,4.7,9.9h-7.1c-0.2-2.2-1.1-4-2.7-5.4c-1.6-1.4-3.9-2-6.6-2
					c-2.6,0-4.6,0.5-6.1,1.6c-1.5,1.1-2.3,2.5-2.3,4.3c0,1.4,0.5,2.6,1.4,3.5c0.9,0.9,2.1,1.6,3.4,2.2c1.4,0.5,3.3,1.2,5.8,1.8
					c3.1,0.8,5.6,1.7,7.5,2.5c1.9,0.8,3.6,2,5,3.6c1.4,1.6,2.1,3.7,2.2,6.4c0,2.4-0.7,4.5-2,6.4c-1.3,1.9-3.1,3.4-5.5,4.4
					c-2.4,1.1-5.1,1.6-8.2,1.6C516.1,162.9,513.1,162.3,510.5,161.2z"/>
				<path class="st2" d="M545.3,110.8c-0.9-0.9-1.4-2.1-1.4-3.4c0-1.4,0.5-2.5,1.4-3.5c0.9-0.9,2.1-1.4,3.4-1.4
					c1.3,0,2.4,0.5,3.3,1.4c0.9,0.9,1.4,2.1,1.4,3.5c0,1.4-0.5,2.5-1.4,3.4c-0.9,0.9-2,1.4-3.3,1.4
					C547.4,112.2,546.2,111.7,545.3,110.8z M552.2,119.2v43h-7.1v-43H552.2z"/>
				<path class="st2" d="M591.8,120.9c2.8,1.6,4.9,3.7,6.2,6.1v-7.8h7.2v43.9c0,3.9-0.8,7.4-2.5,10.5c-1.7,3.1-4.1,5.4-7.2,7.2
					c-3.1,1.7-6.7,2.6-10.9,2.6c-5.6,0-10.3-1.3-14.1-4c-3.8-2.7-6-6.3-6.7-10.9h7.1c0.8,2.6,2.4,4.7,4.9,6.3
					c2.5,1.6,5.4,2.4,8.9,2.4c3.9,0,7.1-1.2,9.6-3.7c2.5-2.5,3.7-5.9,3.7-10.3v-9c-1.4,2.5-3.5,4.6-6.3,6.3c-2.8,1.7-6,2.5-9.7,2.5
					c-3.8,0-7.3-0.9-10.4-2.8c-3.1-1.9-5.6-4.5-7.3-7.9c-1.8-3.4-2.7-7.3-2.7-11.6c0-4.4,0.9-8.2,2.7-11.6c1.8-3.3,4.2-5.9,7.3-7.7
					c3.1-1.8,6.6-2.7,10.4-2.7C585.8,118.5,589,119.3,591.8,120.9z M596.1,132.1c-1.3-2.4-3.1-4.2-5.3-5.5c-2.2-1.3-4.7-1.9-7.3-1.9
					s-5.1,0.6-7.3,1.9c-2.2,1.3-3.9,3.1-5.3,5.5c-1.3,2.4-2,5.2-2,8.5c0,3.3,0.7,6.2,2,8.6c1.3,2.4,3.1,4.3,5.3,5.6
					c2.2,1.3,4.6,1.9,7.3,1.9s5.1-0.6,7.3-1.9c2.2-1.3,4-3.1,5.3-5.6c1.3-2.4,2-5.3,2-8.5C598.1,137.4,597.4,134.5,596.1,132.1z"/>
				<path class="st2" d="M651,123.1c3.2,3.2,4.9,7.7,4.9,13.7v25.3h-7.1v-24.3c0-4.3-1.1-7.6-3.2-9.8c-2.1-2.3-5.1-3.4-8.8-3.4
					c-3.8,0-6.8,1.2-9,3.5c-2.2,2.4-3.3,5.8-3.3,10.3v23.8h-7.1v-43h7.1v6.1c1.4-2.2,3.3-3.9,5.8-5.1c2.4-1.2,5.1-1.8,8-1.8
					C643.5,118.4,647.7,120,651,123.1z"/>
			</g>
		</g>
		<polygon class="st3" points="805.9,106.9 784.8,96 779.5,119.1 770.3,97.2 751.4,111.4 758.4,88.8 734.8,87.6 754.7,74.8 
			737.4,58.6 760.9,61.6 758.1,38.1 774.1,55.5 787.1,35.6 788.2,59.3 810.8,52.4 796.5,71.3 818.3,80.6 795.2,85.8 		"/>
	</g>
	<g>
		<g>
			<g class="st1">
				<path class="st2" d="M116.1,279.8v55h-13.4v-33l-12.3,33H79.5l-12.4-33.1v33.1H53.7v-55h15.8L85,317.9l15.3-38.1H116.1z"/>
				<path class="st2" d="M134.1,332.7c-3.4-1.8-6.1-4.4-8.1-7.8c-2-3.4-2.9-7.4-2.9-11.9c0-4.5,1-8.5,3-11.9c2-3.4,4.7-6,8.2-7.9
					c3.4-1.8,7.3-2.7,11.6-2.7c4.3,0,8.2,0.9,11.6,2.7c3.4,1.8,6.2,4.5,8.2,7.9c2,3.4,3,7.4,3,11.9c0,4.5-1,8.5-3,11.9
					c-2,3.4-4.8,6.1-8.2,7.9c-3.5,1.8-7.4,2.7-11.6,2.7C141.3,335.5,137.5,334.6,134.1,332.7z M152.2,321c1.8-1.9,2.7-4.6,2.7-8.1
					c0-3.5-0.9-6.2-2.6-8.1c-1.8-1.9-3.9-2.8-6.5-2.8c-2.6,0-4.8,0.9-6.5,2.8c-1.7,1.9-2.6,4.6-2.6,8.1c0,3.5,0.8,6.2,2.5,8.1
					c1.7,1.9,3.8,2.8,6.4,2.8C148.2,323.9,150.4,322.9,152.2,321z"/>
				<path class="st2" d="M200,323.5v11.4h-6.8c-4.9,0-8.7-1.2-11.4-3.6c-2.7-2.4-4.1-6.3-4.1-11.6v-17.4h-5.3v-11.1h5.3v-10.7h13.4
					v10.7h8.8v11.1h-8.8v17.6c0,1.3,0.3,2.2,0.9,2.8c0.6,0.6,1.7,0.9,3.1,0.9H200z"/>
				<path class="st2" d="M208.5,284.5c-1.5-1.4-2.2-3.1-2.2-5.1c0-2.1,0.7-3.8,2.2-5.2s3.4-2.1,5.8-2.1c2.3,0,4.2,0.7,5.7,2.1
					c1.5,1.4,2.2,3.1,2.2,5.2c0,2-0.7,3.8-2.2,5.1c-1.5,1.4-3.4,2.1-5.7,2.1C211.9,286.6,210,285.9,208.5,284.5z M220.9,291.1v43.7
					h-13.4v-43.7H220.9z"/>
				<path class="st2" d="M239,332.7c-3.4-1.8-6.1-4.4-8.1-7.8c-2-3.4-2.9-7.4-2.9-11.9c0-4.5,1-8.5,3-11.9c2-3.4,4.7-6,8.2-7.9
					c3.4-1.8,7.3-2.7,11.6-2.7c4.3,0,8.2,0.9,11.6,2.7c3.4,1.8,6.2,4.5,8.2,7.9c2,3.4,3,7.4,3,11.9c0,4.5-1,8.5-3,11.9
					c-2,3.4-4.8,6.1-8.2,7.9c-3.5,1.8-7.4,2.7-11.6,2.7C246.2,335.5,242.4,334.6,239,332.7z M257.1,321c1.8-1.9,2.7-4.6,2.7-8.1
					c0-3.5-0.9-6.2-2.6-8.1c-1.8-1.9-3.9-2.8-6.5-2.8c-2.6,0-4.8,0.9-6.5,2.8c-1.7,1.9-2.6,4.6-2.6,8.1c0,3.5,0.8,6.2,2.5,8.1
					c1.7,1.9,3.8,2.8,6.4,2.8C253.1,323.9,255.3,322.9,257.1,321z"/>
				<path class="st2" d="M319.5,295.6c3.1,3.3,4.6,7.9,4.6,13.7v25.6h-13.3v-23.8c0-2.9-0.8-5.2-2.3-6.8c-1.5-1.6-3.6-2.4-6.1-2.4
					c-2.6,0-4.6,0.8-6.1,2.4c-1.5,1.6-2.3,3.9-2.3,6.8v23.8h-13.4v-43.7H294v5.8c1.4-1.9,3.2-3.5,5.5-4.6c2.3-1.1,4.9-1.7,7.8-1.7
					C312.3,290.6,316.4,292.3,319.5,295.6z"/>
			</g>
			<g class="st1">
				<path class="st0" d="M376.5,334.8l-7.1-7.2c-2.7,2.8-5.5,4.8-8.5,6.2c-3,1.3-6.5,2-10.3,2c-3.8,0-7.1-0.7-10-2
					c-2.9-1.4-5.1-3.3-6.7-5.8c-1.6-2.5-2.4-5.4-2.4-8.8c0-3.8,1.1-7.2,3.3-10.1c2.2-2.9,5.4-5.2,9.6-6.9c-1.7-2-2.9-3.8-3.6-5.5
					c-0.7-1.7-1.1-3.5-1.1-5.5c0-2.3,0.6-4.4,1.8-6.2c1.2-1.9,2.9-3.3,5.1-4.4c2.2-1,4.7-1.6,7.6-1.6c2.8,0,5.3,0.5,7.4,1.6
					c2.1,1.1,3.7,2.6,4.7,4.6c1,2,1.5,4.1,1.4,6.5h-7.1c0.1-2.1-0.5-3.8-1.8-5.1c-1.3-1.2-2.9-1.8-4.9-1.8c-2.1,0-3.8,0.6-5.1,1.8
					c-1.3,1.2-1.9,2.7-1.9,4.5c0,1.6,0.4,3.1,1.3,4.5c0.9,1.5,2.3,3.3,4.4,5.4l16.3,16.4l1.4-2.2l5.3-8.9h7.7l-6.4,11.1
					c-0.9,1.6-1.9,3.2-3.1,4.9l12.3,12.3H376.5z M358.2,328c2.3-1.1,4.4-2.8,6.5-5.1l-16.1-16.2c-6.7,2.6-10,6.6-10,12.2
					c0,3.1,1.1,5.6,3.3,7.7c2.2,2,5.1,3.1,8.7,3.1C353.4,329.7,355.9,329.1,358.2,328z"/>
			</g>
			<g class="st1">
				<path class="st2" d="M443,279.8l-19.5,55h-16.8l-19.5-55h14.3l13.6,41.6l13.7-41.6H443z"/>
				<path class="st2" d="M449.5,284.5c-1.5-1.4-2.2-3.1-2.2-5.1c0-2.1,0.7-3.8,2.2-5.2c1.5-1.4,3.4-2.1,5.8-2.1
					c2.3,0,4.2,0.7,5.7,2.1s2.2,3.1,2.2,5.2c0,2-0.7,3.8-2.2,5.1s-3.4,2.1-5.7,2.1C453,286.6,451,285.9,449.5,284.5z M462,291.1
					v43.7h-13.4v-43.7H462z"/>
				<path class="st2" d="M471.6,301.1c1.7-3.4,4-6,6.9-7.8c2.9-1.8,6.2-2.7,9.8-2.7c2.9,0,5.5,0.6,7.9,1.8c2.4,1.2,4.2,2.8,5.6,4.9
					v-20.3h13.4v58h-13.4v-6.3c-1.3,2.1-3,3.8-5.4,5c-2.3,1.3-5,1.9-8.1,1.9c-3.6,0-6.9-0.9-9.8-2.8c-2.9-1.9-5.2-4.5-6.9-7.9
					c-1.7-3.4-2.5-7.4-2.5-11.9C469,308.4,469.9,304.5,471.6,301.1z M499,305.1c-1.9-1.9-4.1-2.9-6.8-2.9c-2.7,0-4.9,1-6.8,2.9
					c-1.9,1.9-2.8,4.5-2.8,7.9c0,3.3,0.9,6,2.8,8c1.9,2,4.1,2.9,6.8,2.9c2.7,0,4.9-1,6.8-2.9c1.9-1.9,2.8-4.6,2.8-7.9
					C501.8,309.6,500.9,307,499,305.1z"/>
				<path class="st2" d="M565.9,316.2h-30.3c0.2,2.7,1.1,4.8,2.6,6.2c1.5,1.4,3.4,2.2,5.7,2.2c3.3,0,5.7-1.4,7-4.2h14.3
					c-0.7,2.9-2.1,5.5-4,7.8c-1.9,2.3-4.3,4.1-7.2,5.4c-2.9,1.3-6.1,2-9.6,2c-4.3,0-8.1-0.9-11.4-2.7c-3.3-1.8-6-4.4-7.8-7.8
					c-1.9-3.4-2.8-7.4-2.8-11.9c0-4.5,0.9-8.5,2.8-11.9c1.9-3.4,4.5-6,7.8-7.8c3.3-1.8,7.2-2.7,11.5-2.7c4.2,0,8,0.9,11.3,2.7
					c3.3,1.8,5.9,4.3,7.7,7.6c1.9,3.3,2.8,7.1,2.8,11.5C566.2,313.5,566.1,314.8,565.9,316.2z M552.4,308.7c0-2.3-0.8-4.1-2.4-5.5
					c-1.6-1.4-3.5-2-5.9-2c-2.2,0-4.1,0.7-5.7,2c-1.5,1.3-2.5,3.2-2.9,5.6H552.4z"/>
				<path class="st2" d="M581.6,332.7c-3.4-1.8-6.1-4.4-8.1-7.8c-2-3.4-2.9-7.4-2.9-11.9c0-4.5,1-8.5,3-11.9c2-3.4,4.7-6,8.2-7.9
					c3.4-1.8,7.3-2.7,11.6-2.7c4.3,0,8.2,0.9,11.6,2.7c3.5,1.8,6.2,4.5,8.2,7.9c2,3.4,3,7.4,3,11.9c0,4.5-1,8.5-3,11.9
					c-2,3.4-4.8,6.1-8.2,7.9c-3.5,1.8-7.4,2.7-11.6,2.7C588.8,335.5,585,334.6,581.6,332.7z M599.7,321c1.8-1.9,2.7-4.6,2.7-8.1
					c0-3.5-0.9-6.2-2.6-8.1c-1.8-1.9-3.9-2.8-6.5-2.8c-2.6,0-4.8,0.9-6.5,2.8c-1.7,1.9-2.6,4.6-2.6,8.1c0,3.5,0.8,6.2,2.5,8.1
					c1.7,1.9,3.8,2.8,6.4,2.8C595.7,323.9,597.9,322.9,599.7,321z"/>
			</g>
		</g>
		<g>
			<g class="st1">
				<path class="st2" d="M767.9,311.1c1.6,1.3,3,2.9,3.9,4.9c1,1.9,1.5,4,1.5,6.2c0,2.8-0.7,5.3-2.1,7.5c-1.4,2.2-3.5,4-6.2,5.3
					c-2.7,1.3-5.9,1.9-9.5,1.9h-20.4v-54.6h19.6c3.7,0,6.9,0.6,9.5,1.8c2.6,1.2,4.6,2.9,5.9,5c1.3,2.1,2,4.4,2,7.1
					c0,3.2-0.9,5.9-2.6,8c-1.8,2.1-4.1,3.6-6.9,4.6C764.5,309,766.3,309.8,767.9,311.1z M742.2,305.8h12c3.3,0,5.9-0.8,7.8-2.4
					c1.8-1.6,2.7-3.7,2.7-6.5c0-2.8-0.9-4.9-2.7-6.5c-1.8-1.6-4.5-2.4-7.9-2.4h-11.8V305.8z M763.2,328.5c2-1.7,3-4,3-7
					c0-3-1-5.4-3.1-7.2c-2.1-1.8-4.9-2.6-8.4-2.6h-12.4V331h12.6C758.4,331,761.2,330.1,763.2,328.5z"/>
				<path class="st2" d="M795.7,295.1c2.3-1.4,5.2-2,8.5-2v7.4h-1.9c-8,0-12,4.3-12,13v23.4h-7.1v-43h7.1v7
					C791.6,298.4,793.3,296.5,795.7,295.1z"/>
				<path class="st2" d="M812.4,303.6c1.8-3.3,4.2-5.9,7.3-7.7c3.1-1.8,6.6-2.7,10.4-2.7c3.8,0,7,0.8,9.8,2.4
					c2.8,1.6,4.8,3.7,6.2,6.1v-7.8h7.2v43h-7.2v-8c-1.4,2.5-3.5,4.6-6.3,6.2c-2.8,1.6-6,2.5-9.8,2.5c-3.8,0-7.3-0.9-10.3-2.8
					c-3.1-1.9-5.5-4.5-7.3-7.9c-1.8-3.4-2.7-7.3-2.7-11.6C809.7,310.8,810.6,307,812.4,303.6z M844.2,306.8
					c-1.3-2.4-3.1-4.2-5.3-5.5c-2.2-1.3-4.7-1.9-7.3-1.9c-2.7,0-5.1,0.6-7.3,1.9c-2.2,1.3-3.9,3.1-5.3,5.5c-1.3,2.4-2,5.2-2,8.5
					c0,3.3,0.7,6.2,2,8.6c1.3,2.4,3.1,4.3,5.3,5.6c2.2,1.3,4.6,1.9,7.3,1.9c2.7,0,5.1-0.6,7.3-1.9c2.2-1.3,4-3.1,5.3-5.6
					c1.3-2.4,2-5.3,2-8.5C846.1,312,845.5,309.2,844.2,306.8z"/>
				<path class="st2" d="M899,297.8c3.2,3.2,4.9,7.7,4.9,13.7v25.3h-7.1v-24.3c0-4.3-1.1-7.6-3.2-9.8c-2.1-2.3-5.1-3.4-8.8-3.4
					c-3.8,0-6.8,1.2-9,3.5c-2.2,2.4-3.3,5.8-3.3,10.3v23.8h-7.1v-43h7.1v6.1c1.4-2.2,3.3-3.9,5.8-5.1c2.4-1.2,5.1-1.8,8-1.8
					C891.6,293.1,895.8,294.7,899,297.8z"/>
				<path class="st2" d="M915.6,303.6c1.8-3.3,4.2-5.9,7.3-7.7c3.1-1.8,6.6-2.7,10.5-2.7c3.3,0,6.5,0.8,9.3,2.3
					c2.9,1.5,5.1,3.6,6.6,6.1v-22.7h7.2v58h-7.2v-8.1c-1.4,2.6-3.5,4.7-6.3,6.3c-2.8,1.6-6,2.5-9.7,2.5c-3.8,0-7.3-0.9-10.4-2.8
					c-3.1-1.9-5.6-4.5-7.3-7.9c-1.8-3.4-2.7-7.3-2.7-11.6C912.9,310.8,913.8,307,915.6,303.6z M947.3,306.8
					c-1.3-2.4-3.1-4.2-5.3-5.5c-2.2-1.3-4.7-1.9-7.3-1.9s-5.1,0.6-7.3,1.9c-2.2,1.3-3.9,3.1-5.3,5.5c-1.3,2.4-2,5.2-2,8.5
					c0,3.3,0.7,6.2,2,8.6c1.3,2.4,3.1,4.3,5.3,5.6c2.2,1.3,4.6,1.9,7.3,1.9s5.1-0.6,7.3-1.9c2.2-1.3,4-3.1,5.3-5.6s2-5.3,2-8.5
					C949.3,312,948.6,309.2,947.3,306.8z"/>
				<path class="st2" d="M1022,285.5c4.4,2.2,7.7,5.4,10,9.5c2.3,4.1,3.5,9,3.5,14.6c0,5.6-1.2,10.4-3.5,14.5
					c-2.3,4.1-5.7,7.2-10,9.4c-4.4,2.2-9.5,3.3-15.5,3.3h-17v-54.6h17C1012.5,282.2,1017.6,283.3,1022,285.5z M1022.7,325.4
					c3.7-3.7,5.6-9,5.6-15.7c0-6.8-1.9-12.1-5.6-15.9c-3.7-3.8-9.1-5.7-16.1-5.7h-9.9v43h9.9C1013.6,331,1019,329.1,1022.7,325.4z"
					/>
				<path class="st2" d="M1083.9,318h-34.3c0.3,4.2,1.7,7.5,4.4,9.9c2.6,2.4,5.8,3.6,9.6,3.6c3.1,0,5.7-0.7,7.7-2.2
					c2.1-1.4,3.5-3.4,4.4-5.8h7.7c-1.2,4.1-3.4,7.5-6.9,10.1c-3.5,2.6-7.7,3.9-12.9,3.9c-4.1,0-7.7-0.9-10.9-2.7
					c-3.2-1.8-5.7-4.4-7.6-7.8c-1.8-3.4-2.7-7.3-2.7-11.7c0-4.4,0.9-8.3,2.7-11.7c1.8-3.3,4.3-5.9,7.5-7.7c3.2-1.8,6.9-2.7,11.1-2.7
					c4.1,0,7.7,0.9,10.8,2.7c3.1,1.8,5.6,4.2,7.3,7.3c1.7,3.1,2.5,6.6,2.5,10.5C1084.1,315.1,1084.1,316.5,1083.9,318z M1075,305.2
					c-1.2-2-2.8-3.4-4.9-4.5s-4.4-1.5-6.9-1.5c-3.6,0-6.7,1.1-9.2,3.4c-2.5,2.3-4,5.5-4.4,9.6h27.1
					C1076.8,309.5,1076.2,307.2,1075,305.2z"/>
				<path class="st2" d="M1099.9,335.9c-2.6-1.1-4.7-2.7-6.2-4.7c-1.5-2-2.4-4.3-2.5-6.9h7.4c0.2,2.1,1.2,3.9,3,5.3
					c1.8,1.4,4.2,2,7.1,2c2.7,0,4.9-0.6,6.4-1.8c1.6-1.2,2.4-2.7,2.4-4.5c0-1.9-0.8-3.3-2.5-4.2c-1.7-0.9-4.3-1.8-7.8-2.7
					c-3.2-0.8-5.8-1.7-7.8-2.5c-2-0.9-3.7-2.1-5.2-3.8c-1.4-1.7-2.2-3.9-2.2-6.7c0-2.2,0.7-4.2,2-6c1.3-1.8,3.2-3.3,5.6-4.4
					s5.1-1.6,8.2-1.6c4.8,0,8.6,1.2,11.5,3.6c2.9,2.4,4.5,5.7,4.7,9.9h-7.1c-0.2-2.2-1.1-4-2.7-5.4c-1.6-1.4-3.9-2-6.6-2
					c-2.6,0-4.6,0.5-6.1,1.6c-1.5,1.1-2.3,2.5-2.3,4.3c0,1.4,0.5,2.6,1.4,3.5c0.9,0.9,2.1,1.6,3.4,2.2c1.4,0.5,3.3,1.2,5.8,1.8
					c3.1,0.8,5.6,1.7,7.5,2.5c1.9,0.8,3.6,2,5,3.6c1.4,1.6,2.1,3.7,2.2,6.4c0,2.4-0.7,4.5-2,6.4c-1.3,1.9-3.1,3.4-5.5,4.4
					c-2.4,1.1-5.1,1.6-8.2,1.6C1105.5,337.6,1102.5,337,1099.9,335.9z"/>
				<path class="st2" d="M1134.7,285.5c-0.9-0.9-1.4-2.1-1.4-3.4c0-1.4,0.5-2.5,1.4-3.5c0.9-0.9,2.1-1.4,3.4-1.4
					c1.3,0,2.4,0.5,3.3,1.4c0.9,0.9,1.4,2.1,1.4,3.5c0,1.4-0.5,2.5-1.4,3.4c-0.9,0.9-2,1.4-3.3,1.4
					C1136.8,286.9,1135.6,286.4,1134.7,285.5z M1141.6,293.9v43h-7.1v-43H1141.6z"/>
				<path class="st2" d="M1181.2,295.6c2.8,1.6,4.9,3.7,6.2,6.1v-7.8h7.2v43.9c0,3.9-0.8,7.4-2.5,10.5c-1.7,3.1-4.1,5.4-7.2,7.2
					c-3.1,1.7-6.7,2.6-10.9,2.6c-5.6,0-10.3-1.3-14.1-4c-3.8-2.7-6-6.3-6.7-10.9h7.1c0.8,2.6,2.4,4.7,4.9,6.3
					c2.5,1.6,5.4,2.4,8.9,2.4c3.9,0,7.1-1.2,9.6-3.7c2.5-2.5,3.7-5.9,3.7-10.3v-9c-1.4,2.5-3.5,4.6-6.3,6.3c-2.8,1.7-6,2.5-9.7,2.5
					c-3.8,0-7.3-0.9-10.4-2.8c-3.1-1.9-5.6-4.5-7.3-7.9c-1.8-3.4-2.7-7.3-2.7-11.6c0-4.4,0.9-8.2,2.7-11.6c1.8-3.3,4.2-5.9,7.3-7.7
					c3.1-1.8,6.6-2.7,10.4-2.7C1175.2,293.2,1178.4,294,1181.2,295.6z M1185.5,306.8c-1.3-2.4-3.1-4.2-5.3-5.5
					c-2.2-1.3-4.7-1.9-7.3-1.9s-5.1,0.6-7.3,1.9c-2.2,1.3-3.9,3.1-5.3,5.5c-1.3,2.4-2,5.2-2,8.5c0,3.3,0.7,6.2,2,8.6
					c1.3,2.4,3.1,4.3,5.3,5.6c2.2,1.3,4.6,1.9,7.3,1.9s5.1-0.6,7.3-1.9c2.2-1.3,4-3.1,5.3-5.6c1.3-2.4,2-5.3,2-8.5
					C1187.5,312,1186.8,309.2,1185.5,306.8z"/>
				<path class="st2" d="M1240.4,297.8c3.2,3.2,4.9,7.7,4.9,13.7v25.3h-7.1v-24.3c0-4.3-1.1-7.6-3.2-9.8c-2.1-2.3-5.1-3.4-8.8-3.4
					c-3.8,0-6.8,1.2-9,3.5c-2.2,2.4-3.3,5.8-3.3,10.3v23.8h-7.1v-43h7.1v6.1c1.4-2.2,3.3-3.9,5.8-5.1c2.4-1.2,5.1-1.8,8-1.8
					C1232.9,293.1,1237.1,294.7,1240.4,297.8z"/>
			</g>
		</g>
		<path class="st0" d="M1259.3,375.9H720.7c-13.8,0-24.9-11.2-24.9-24.9v-81.1c0-13.8,11.2-24.9,24.9-24.9h538.6
			c13.8,0,24.9,11.2,24.9,24.9V351C1284.2,364.8,1273,375.9,1259.3,375.9z M720.7,247.2c-12.5,0-22.6,10.2-22.6,22.6V351
			c0,12.5,10.2,22.6,22.6,22.6h538.6c12.5,0,22.6-10.2,22.6-22.6v-81.1c0-12.5-10.2-22.6-22.6-22.6L720.7,247.2L720.7,247.2z"/>
		<path class="st0" d="M1561.2,364.5c-7.5,0-11.4-2.6-14.9-5c-3.3-2.3-6.2-4.2-12.3-4.2c-6.1,0-9,2-12.3,4.2c-3.5,2.3-7.4,5-14.9,5
			s-11.4-2.6-14.9-5c-3.3-2.3-6.2-4.2-12.3-4.2s-9,2-12.3,4.2c-3.5,2.3-7.4,5-14.9,5c-7.5,0-11.4-2.6-14.9-5
			c-3.3-2.3-6.2-4.2-12.3-4.2s-9,2-12.3,4.2c-3.5,2.3-7.4,5-14.9,5s-11.4-2.6-14.9-5c-3.3-2.3-6.2-4.2-12.3-4.2
			c-1.3,0-2.3-1-2.3-2.3s1-2.3,2.3-2.3c7.5,0,11.4,2.6,14.9,5c3.3,2.3,6.2,4.2,12.3,4.2s9-2,12.3-4.2c3.5-2.3,7.4-5,14.9-5
			s11.4,2.6,14.9,5c3.3,2.3,6.2,4.2,12.3,4.2s9-2,12.3-4.2c3.5-2.3,7.4-5,14.9-5c7.5,0,11.4,2.6,14.9,5c3.3,2.3,6.2,4.2,12.3,4.2
			s9-2,12.3-4.2c3.5-2.3,7.4-5,14.9-5s11.4,2.6,14.9,5c3.3,2.3,6.2,4.2,12.3,4.2c1.3,0,2.3,1,2.3,2.3
			C1563.5,363.4,1562.4,364.5,1561.2,364.5z"/>
		<g>
			<g class="st1">
				<path class="st2" d="M1390.6,276.8v58h-7.1v-58H1390.6z"/>
				<path class="st2" d="M1410.6,332.8c-3.3-1.8-5.8-4.4-7.7-7.8c-1.9-3.4-2.8-7.3-2.8-11.7c0-4.4,1-8.3,2.9-11.6
					c1.9-3.4,4.5-6,7.8-7.8c3.3-1.8,7-2.7,11.1-2.7s7.8,0.9,11.1,2.7c3.3,1.8,5.9,4.4,7.8,7.7c1.9,3.3,2.9,7.2,2.9,11.7
					c0,4.4-1,8.3-2.9,11.7c-2,3.4-4.6,6-8,7.8c-3.3,1.8-7.1,2.7-11.1,2.7C1417.5,335.6,1413.9,334.6,1410.6,332.8z M1428.7,327.5
					c2.2-1.2,4.1-3,5.4-5.4c1.4-2.4,2.1-5.3,2.1-8.8c0-3.4-0.7-6.4-2-8.8c-1.4-2.4-3.1-4.2-5.3-5.4c-2.2-1.2-4.6-1.8-7.1-1.8
					c-2.6,0-5,0.6-7.2,1.8c-2.2,1.2-3.9,3-5.2,5.4c-1.3,2.4-2,5.3-2,8.8c0,3.5,0.6,6.5,1.9,8.9c1.3,2.4,3,4.2,5.1,5.4
					c2.1,1.2,4.5,1.8,7.1,1.8C1424.1,329.3,1426.5,328.7,1428.7,327.5z"/>
				<path class="st2" d="M1480.5,293.6c2.8,1.6,4.9,3.7,6.2,6.1v-7.8h7.2v43.9c0,3.9-0.8,7.4-2.5,10.5c-1.7,3.1-4.1,5.4-7.2,7.2
					c-3.1,1.7-6.7,2.6-10.9,2.6c-5.6,0-10.3-1.3-14.1-4c-3.8-2.7-6-6.3-6.7-10.9h7.1c0.8,2.6,2.4,4.7,4.9,6.3
					c2.5,1.6,5.4,2.4,8.9,2.4c3.9,0,7.1-1.2,9.6-3.7c2.5-2.5,3.7-5.9,3.7-10.3v-9c-1.4,2.5-3.5,4.6-6.3,6.3c-2.8,1.7-6,2.5-9.7,2.5
					c-3.8,0-7.3-0.9-10.4-2.8c-3.1-1.9-5.6-4.5-7.3-7.9c-1.8-3.4-2.7-7.3-2.7-11.6c0-4.4,0.9-8.2,2.7-11.6s4.2-5.9,7.3-7.7
					c3.1-1.8,6.6-2.7,10.4-2.7C1474.4,291.2,1477.7,292,1480.5,293.6z M1484.7,304.8c-1.3-2.4-3.1-4.2-5.3-5.5
					c-2.2-1.3-4.7-1.9-7.3-1.9c-2.7,0-5.1,0.6-7.3,1.9c-2.2,1.3-3.9,3.1-5.3,5.5c-1.3,2.4-2,5.2-2,8.5c0,3.3,0.7,6.2,2,8.6
					s3.1,4.3,5.3,5.6c2.2,1.3,4.6,1.9,7.3,1.9c2.7,0,5.1-0.6,7.3-1.9c2.2-1.3,4-3.1,5.3-5.6c1.3-2.4,2-5.3,2-8.5
					C1486.7,310,1486,307.2,1484.7,304.8z"/>
				<path class="st2" d="M1513.8,332.8c-3.3-1.8-5.8-4.4-7.7-7.8c-1.9-3.4-2.8-7.3-2.8-11.7c0-4.4,1-8.3,2.9-11.6
					c1.9-3.4,4.5-6,7.8-7.8c3.3-1.8,7-2.7,11.1-2.7c4.1,0,7.8,0.9,11.1,2.7c3.3,1.8,5.9,4.4,7.8,7.7c1.9,3.3,2.9,7.2,2.9,11.7
					c0,4.4-1,8.3-2.9,11.7c-2,3.4-4.6,6-8,7.8c-3.3,1.8-7.1,2.7-11.1,2.7C1520.7,335.6,1517,334.6,1513.8,332.8z M1531.9,327.5
					c2.2-1.2,4.1-3,5.4-5.4c1.4-2.4,2.1-5.3,2.1-8.8c0-3.4-0.7-6.4-2-8.8c-1.4-2.4-3.1-4.2-5.3-5.4c-2.2-1.2-4.6-1.8-7.1-1.8
					c-2.6,0-5,0.6-7.2,1.8c-2.2,1.2-3.9,3-5.2,5.4c-1.3,2.4-2,5.3-2,8.8c0,3.5,0.6,6.5,1.9,8.9c1.3,2.4,3,4.2,5.1,5.4
					c2.1,1.2,4.5,1.8,7.1,1.8C1527.3,329.3,1529.7,328.7,1531.9,327.5z"/>
			</g>
		</g>
	</g>
</g>
</svg>
