<?xml version="1.0" encoding="utf-8"?>
<svg version="1.1" id="Camada_1" xmlns="http://www.w3.org/2000/svg" xmlns:xlink="http://www.w3.org/1999/xlink" x="0px" y="0px"
	 viewBox="0 0 1634 424" style="enable-background:new 0 0 1634 424;" xml:space="preserve">
<style type="text/css">
	.st0{fill:#F68661;}
	.st1{fill:#FFFFFF;}
	.st2{font-family:'Poppins-Bold';}
	.st3{font-size:78.4005px;}
	.st4{font-family:'Poppins-Regular';}
	.st5{fill:#D2FF58;}
</style>
<g>
	<g>
		<path class="st0" d="M632.47,208.14H98.05c-40.56,0-73.56-33-73.56-73.56s33-73.56,73.56-73.56h534.43
			c40.56,0,73.56,33,73.56,73.56S673.03,208.14,632.47,208.14z M98.05,63.33c-39.29,0-71.26,31.97-71.26,71.26
			s31.97,71.26,71.26,71.26h534.43c39.29,0,71.26-31.97,71.26-71.26s-31.97-71.26-71.26-71.26H98.05z"/>
		<g>
			<text transform="matrix(1 0 0 1 820.8872 162.1505)" class="st1 st2 st3">Software Developer</text>
		</g>
		<g>
			<text transform="matrix(1 0 0 1 69.0293 162.1515)" class="st1 st4 st3">Product Design</text>
		</g>
		<polygon class="st5" points="805.88,106.87 784.82,96 779.46,119.08 770.33,97.21 751.38,111.45 758.44,88.83 734.78,87.55 
			754.72,74.76 737.41,58.58 760.92,61.6 758.06,38.07 774.12,55.5 787.06,35.64 788.16,59.31 810.83,52.41 796.47,71.26 
			818.27,80.55 795.15,85.75 		"/>
	</g>
	<g>
		<g>
			<text transform="matrix(1 0 0 1 48.8799 334.8487)"><tspan x="0" y="0" class="st1 st2 st3">Motion</tspan><tspan x="279.65" y="0" class="st0 st4 st3">&amp;</tspan><tspan x="337.59" y="0" class="st1 st2 st3">Video</tspan></text>
		</g>
		<g>
			<text transform="matrix(1 0 0 1 729.0659 336.8448)" class="st1 st4 st3">Brand Design</text>
		</g>
		<path class="st0" d="M1259.26,375.94H720.7c-13.75,0-24.94-11.19-24.94-24.94v-81.14c0-13.75,11.19-24.94,24.94-24.94h538.56
			c13.75,0,24.94,11.19,24.94,24.94V351C1284.2,364.75,1273.01,375.94,1259.26,375.94z M720.7,247.22
			c-12.49,0-22.64,10.16-22.64,22.64V351c0,12.49,10.16,22.64,22.64,22.64h538.56c12.49,0,22.64-10.16,22.64-22.64v-81.14
			c0-12.49-10.16-22.64-22.64-22.64H720.7z"/>
		<path class="st0" d="M1561.18,364.45c-7.52,0-11.45-2.65-14.92-4.99c-3.35-2.26-6.23-4.2-12.35-4.2c-6.11,0-9,1.95-12.35,4.2
			c-3.47,2.34-7.4,4.99-14.92,4.99c-7.52,0-11.44-2.65-14.91-4.99c-3.34-2.26-6.23-4.2-12.34-4.2c-6.11,0-9,1.95-12.34,4.2
			c-3.47,2.34-7.4,4.99-14.92,4.99c-7.51,0-11.44-2.65-14.91-4.99c-3.34-2.26-6.23-4.2-12.34-4.2c-6.11,0-8.99,1.95-12.33,4.2
			c-3.47,2.34-7.39,4.99-14.91,4.99c-7.52,0-11.44-2.65-14.91-4.99c-3.34-2.25-6.23-4.2-12.34-4.2c-1.27,0-2.3-1.03-2.3-2.3
			c0-1.27,1.03-2.3,2.3-2.3c7.52,0,11.44,2.65,14.91,4.99c3.34,2.26,6.23,4.2,12.34,4.2c6.11,0,8.99-1.95,12.33-4.2
			c3.47-2.34,7.39-4.99,14.91-4.99c7.52,0,11.44,2.65,14.91,4.99c3.34,2.25,6.23,4.2,12.34,4.2c6.11,0,9-1.95,12.34-4.2
			c3.47-2.34,7.4-4.99,14.91-4.99c7.52,0,11.44,2.65,14.91,4.99c3.34,2.26,6.23,4.2,12.34,4.2c6.11,0,9-1.95,12.35-4.2
			c3.47-2.34,7.4-4.99,14.92-4.99c7.52,0,11.45,2.65,14.92,4.99c3.35,2.26,6.23,4.2,12.35,4.2c1.27,0,2.3,1.03,2.3,2.3
			C1563.48,363.42,1562.45,364.45,1561.18,364.45z"/>
		<g>
			<text transform="matrix(1 0 0 1 1377.4746 334.8487)" class="st1 st4 st3">logo</text>
		</g>
	</g>
</g>
</svg>
