<?xml version="1.0" encoding="utf-8"?>
<!-- Generator: Adobe Illustrator 28.2.0, SVG Export Plug-In . SVG Version: 6.00 Build 0)  -->
<svg version="1.1" id="Camada_1" xmlns="http://www.w3.org/2000/svg" xmlns:xlink="http://www.w3.org/1999/xlink" x="0px" y="0px"
	 viewBox="0 0 682 352" style="enable-background:new 0 0 682 352;" xml:space="preserve">
<style type="text/css">
	.st0{fill:#FFFFFF;}
	.st1{fill:#F68661;}
</style>
<g>
	<g>
		<path class="st0" d="M112.69,113.93c0,19.98-5.08,34.81-15.22,44.49c-10.15,9.68-25.83,14.52-47.05,14.52
			c-7.43,0-14.87-0.66-22.3-1.97c-7.43-1.32-14.33-3.06-20.68-5.23l6.04-29.04c5.42,2.17,11.12,3.87,17.08,5.11
			c5.97,1.24,12.74,1.86,20.33,1.86c9.92,0,16.92-2.17,21.03-6.51c4.1-4.34,6.16-9.91,6.16-16.73v-4.41
			c-3.72,1.71-7.55,2.99-11.5,3.83c-3.95,0.85-8.25,1.28-12.9,1.28c-16.89,0-29.82-5-38.8-14.99C5.89,96.16,1.4,82.18,1.4,64.21
			c0-8.98,1.39-17.16,4.18-24.51c2.79-7.36,6.86-13.67,12.2-18.94c5.34-5.26,11.88-9.33,19.63-12.2s16.5-4.3,26.25-4.3
			c4.19,0,8.48,0.2,12.9,0.58c4.42,0.39,8.79,0.89,13.13,1.51c4.34,0.62,8.48,1.35,12.43,2.21c3.95,0.85,7.47,1.74,10.57,2.67
			V113.93z M36.71,64.21c0,19.36,7.82,29.04,23.46,29.04c3.56,0,6.89-0.47,9.99-1.4c3.1-0.93,5.73-2.01,7.9-3.25v-55.3
			c-1.71-0.31-3.72-0.58-6.04-0.81s-5.03-0.35-8.14-0.35c-9.14,0-15.95,3.02-20.45,9.06C38.95,47.25,36.71,54.92,36.71,64.21z"/>
		<path class="st0" d="M249.54,125.09c-5.89,1.71-13.47,3.29-22.77,4.76c-9.29,1.47-19.05,2.21-29.28,2.21
			c-10.38,0-19.01-1.4-25.91-4.19c-6.89-2.79-12.35-6.7-16.38-11.73c-4.03-5.03-6.89-11.04-8.59-18.01
			c-1.71-6.97-2.56-14.64-2.56-23V7.05h34.62v63.89c0,11.16,1.47,19.21,4.41,24.17c2.94,4.95,8.44,7.43,16.5,7.43
			c2.47,0,5.11-0.12,7.9-0.35c2.79-0.23,5.27-0.5,7.43-0.81V7.05h34.62V125.09z"/>
		<path class="st0" d="M282.07,11.23c5.88-1.7,13.47-3.29,22.77-4.76c9.29-1.47,19.05-2.21,29.28-2.21
			c10.37,0,19.01,1.36,25.91,4.07s12.35,6.55,16.38,11.5c4.02,4.96,6.89,10.84,8.59,17.66c1.71,6.82,2.56,14.41,2.56,22.77v69.01
			h-34.62V64.44c0-11.15-1.47-19.05-4.41-23.7c-2.94-4.64-8.45-6.97-16.5-6.97c-2.48,0-5.11,0.12-7.9,0.35
			c-2.79,0.23-5.27,0.5-7.44,0.81v94.33h-34.62V11.23z"/>
		<path class="st0" d="M462.83,3.8c10.22,0,18.74,1.16,25.55,3.49c6.81,2.32,12.27,5.66,16.38,9.99c4.1,4.34,7.01,9.61,8.71,15.8
			c1.7,6.2,2.55,13.09,2.55,20.68v72.03c-4.96,1.08-11.85,2.36-20.68,3.83c-8.83,1.47-19.51,2.21-32.06,2.21
			c-7.9,0-15.06-0.7-21.49-2.09c-6.43-1.4-11.96-3.68-16.61-6.85c-4.64-3.18-8.21-7.32-10.69-12.43
			c-2.47-5.11-3.72-11.38-3.72-18.82c0-7.12,1.43-13.16,4.3-18.12c2.86-4.95,6.7-8.9,11.5-11.85c4.8-2.94,10.3-5.07,16.5-6.39
			c6.19-1.32,12.62-1.97,19.28-1.97c4.49,0,8.48,0.19,11.97,0.58c3.49,0.39,6.31,0.9,8.48,1.51v-3.25c0-5.88-1.78-10.6-5.34-14.17
			c-3.56-3.56-9.76-5.34-18.59-5.34c-5.89,0-11.69,0.43-17.42,1.27c-5.73,0.85-10.69,2.06-14.87,3.6l-4.41-27.88
			c2.01-0.62,4.53-1.27,7.55-1.97c3.02-0.7,6.31-1.31,9.87-1.86c3.56-0.54,7.32-1.01,11.27-1.39C454.81,3.99,458.79,3.8,462.83,3.8z
			 M465.61,105.1c3.41,0,6.66-0.08,9.76-0.23c3.1-0.15,5.58-0.38,7.43-0.7V77.92c-1.39-0.31-3.49-0.62-6.27-0.93
			c-2.79-0.31-5.34-0.47-7.67-0.47c-3.25,0-6.31,0.2-9.18,0.58c-2.87,0.39-5.39,1.13-7.55,2.21c-2.17,1.08-3.88,2.55-5.11,4.41
			c-1.24,1.86-1.86,4.19-1.86,6.97c0,5.42,1.82,9.18,5.46,11.27C454.27,104.06,459.26,105.1,465.61,105.1z"/>
		<path class="st0" d="M42.29,320.09c6.35,0,10.84-0.62,13.47-1.86c2.63-1.24,3.95-3.64,3.95-7.2c0-2.79-1.71-5.23-5.11-7.32
			c-3.41-2.09-8.59-4.45-15.57-7.09c-5.42-2.01-10.34-4.1-14.75-6.28c-4.41-2.16-8.17-4.76-11.27-7.78c-3.1-3.02-5.5-6.62-7.2-10.8
			c-1.71-4.18-2.55-9.21-2.55-15.1c0-11.46,4.25-20.52,12.78-27.18c8.51-6.66,20.21-9.99,35.08-9.99c7.43,0,14.55,0.66,21.37,1.97
			c6.81,1.32,12.24,2.75,16.27,4.3l-6.04,26.95c-4.03-1.4-8.41-2.63-13.13-3.72c-4.72-1.08-10.03-1.63-15.91-1.63
			c-10.85,0-16.27,3.02-16.27,9.06c0,1.4,0.23,2.64,0.7,3.72c0.47,1.08,1.4,2.13,2.79,3.14c1.4,1.01,3.29,2.1,5.69,3.26
			c2.4,1.17,5.46,2.46,9.18,3.86c7.59,2.81,13.86,5.59,18.82,8.32c4.95,2.73,8.87,5.68,11.74,8.85c2.86,3.17,4.88,6.69,6.04,10.55
			c1.16,3.86,1.74,8.35,1.74,13.44c0,12.06-4.53,21.18-13.6,27.36c-9.06,6.18-21.88,9.27-38.45,9.27c-10.85,0-19.87-0.93-27.07-2.79
			c-7.2-1.86-12.2-3.4-14.99-4.64l5.81-28.11c5.89,2.32,11.93,4.14,18.12,5.46C30.12,319.43,36.24,320.09,42.29,320.09z"/>
		<path class="st0" d="M118.72,192.3l34.62-5.58v36.02h41.59v28.81h-41.59v42.98c0,7.28,1.28,13.09,3.83,17.42
			c2.55,4.34,7.7,6.51,15.45,6.51c3.72,0,7.55-0.35,11.51-1.05c3.95-0.7,7.55-1.66,10.8-2.9l4.88,26.95
			c-4.18,1.71-8.83,3.18-13.94,4.42c-5.11,1.24-11.38,1.86-18.82,1.86c-9.45,0-17.27-1.28-23.46-3.84
			c-6.2-2.55-11.15-6.11-14.87-10.68c-3.72-4.57-6.31-10.11-7.79-16.61c-1.47-6.51-2.21-13.71-2.21-21.61V192.3z"/>
		<path class="st0" d="M327.37,340.77c-5.89,1.71-13.47,3.29-22.77,4.76c-9.29,1.47-19.05,2.21-29.28,2.21
			c-10.38,0-19.01-1.4-25.91-4.19c-6.89-2.79-12.35-6.7-16.38-11.73c-4.03-5.03-6.89-11.04-8.59-18.01
			c-1.71-6.97-2.56-14.64-2.56-23v-68.08h34.62v63.89c0,11.16,1.47,19.21,4.41,24.17c2.94,4.95,8.44,7.43,16.5,7.43
			c2.47,0,5.11-0.12,7.9-0.35c2.79-0.23,5.27-0.5,7.43-0.81v-94.33h34.62V340.77z"/>
		<path class="st0" d="M467.7,341c-3.1,0.93-6.66,1.82-10.69,2.67c-4.03,0.85-8.25,1.59-12.66,2.21c-4.41,0.62-8.91,1.12-13.47,1.51
			c-4.57,0.38-8.95,0.58-13.13,0.58c-10.07,0-19.05-1.47-26.95-4.42c-7.9-2.94-14.56-7.16-19.98-12.66
			c-5.42-5.49-9.57-12.16-12.43-19.98c-2.87-7.82-4.3-16.61-4.3-26.38c0-9.91,1.24-18.86,3.72-26.83
			c2.47-7.98,6.04-14.75,10.68-20.33c4.65-5.58,10.34-9.84,17.08-12.78c6.73-2.94,14.44-4.41,23.12-4.41c4.8,0,9.1,0.46,12.9,1.39
			c3.8,0.93,7.63,2.25,11.5,3.95v-55.29l34.62-5.58V341z M389.41,282.91c0,10.69,2.4,19.29,7.2,25.79
			c4.8,6.51,11.93,9.76,21.37,9.76c3.1,0,5.96-0.12,8.6-0.35c2.63-0.23,4.8-0.5,6.5-0.81v-62.97c-2.17-1.4-4.99-2.55-8.48-3.49
			c-3.49-0.93-7.01-1.4-10.57-1.4C397.61,249.45,389.41,260.6,389.41,282.91z"/>
		<path class="st0" d="M534.85,344.95h-34.62V222.73h34.62V344.95z"/>
		<path class="st0" d="M681.69,283.61c0,9.6-1.4,18.39-4.19,26.37c-2.79,7.98-6.82,14.8-12.08,20.45
			c-5.27,5.66-11.58,10.03-18.93,13.13c-7.36,3.1-15.61,4.65-24.75,4.65c-8.98,0-17.16-1.55-24.51-4.65
			c-7.36-3.1-13.67-7.47-18.93-13.13c-5.27-5.65-9.38-12.46-12.32-20.45c-2.94-7.98-4.41-16.77-4.41-26.37s1.51-18.36,4.53-26.25
			c3.02-7.9,7.2-14.64,12.55-20.21s11.69-9.91,19.05-13.01c7.36-3.1,15.37-4.65,24.05-4.65c8.83,0,16.92,1.55,24.28,4.65
			c7.36,3.1,13.67,7.43,18.94,13.01c5.26,5.58,9.37,12.31,12.31,20.21C680.22,265.25,681.69,274,681.69,283.61z M646.37,283.61
			c0-10.69-2.13-19.09-6.39-25.21c-4.26-6.12-10.34-9.18-18.24-9.18c-7.9,0-14.02,3.06-18.36,9.18c-4.34,6.12-6.5,14.52-6.5,25.21
			s2.16,19.17,6.5,25.44c4.33,6.27,10.46,9.41,18.36,9.41c7.9,0,13.98-3.14,18.24-9.41C644.24,302.77,646.37,294.3,646.37,283.61z"
			/>
	</g>
	<path class="st1" d="M538.1,187.42c0,6.35-2.05,11.35-6.16,14.99c-4.11,3.64-8.95,5.46-14.52,5.46c-5.58,0-10.42-1.82-14.52-5.46
		c-4.11-3.64-6.16-8.64-6.16-14.99s2.05-11.35,6.16-14.99c4.1-3.64,8.95-5.46,14.52-5.46c5.58,0,10.42,1.82,14.52,5.46
		C536.05,176.07,538.1,181.07,538.1,187.42z"/>
</g>
</svg>
